<svg xmlns="http://www.w3.org/2000/svg" viewBox="0 0 20.32 22.92"><defs><style>.cls-1{fill:#e5c689;}</style></defs><title>Asset 8</title><g id="Layer_2" data-name="Layer 2"><g id="Layer_1-2" data-name="Layer 1"><path class="cls-1" d="M.12,4.45c.09-.35.17-.71.28-1.06A4.7,4.7,0,0,1,1.48,1.48,10.25,10.25,0,0,1,2.81.32a1.69,1.69,0,0,1,2.3.32q1.49,1.8,3,3.62A1.72,1.72,0,0,1,7.8,6.73c-.54.46-1.1.9-1.66,1.35a2.25,2.25,0,0,1-.22.14c.3.65.57,1.28.87,1.89A15.32,15.32,0,0,0,12,16c.17.12.34.22.5.35s.21.08.32,0L14.43,15a1.74,1.74,0,0,1,2.61.26c.87,1.07,1.73,2.14,2.61,3.2a2.44,2.44,0,0,1,.68,1.35l-.05.51a3.56,3.56,0,0,1-.52.82,8.39,8.39,0,0,1-1.43,1.07,5.1,5.1,0,0,1-3.67.58,13,13,0,0,1-4.09-1.65,20.13,20.13,0,0,1-4.46-3.69A31,31,0,0,1,1.41,11,11.36,11.36,0,0,1,.07,6.85C0,6.44,0,6,0,5.63Z"/></g></g></svg>