<svg xmlns="http://www.w3.org/2000/svg" viewBox="0 0 17.32 26.01"><defs><style>.cls-1{fill:#fff;}</style></defs><title>Asset 2</title><g id="Layer_2" data-name="Layer 2"><g id="Layer_1-2" data-name="Layer 1"><g id="Layer_2-2" data-name="Layer 2"><g id="Layer_1-2-2" data-name="Layer 1-2"><path class="cls-1" d="M9.31,0c.46.08.92.14,1.36.25a8.66,8.66,0,0,1,6.57,7.33,8.47,8.47,0,0,1-1,5.29l-7,12.71a2.72,2.72,0,0,1-.4.43h-.3a2.55,2.55,0,0,1-.41-.46q-3.51-6.3-7-12.62A8.65,8.65,0,0,1,4.39,1.13L4.84.89a8.25,8.25,0,0,1,3-.84L8,0ZM8.65,24.31l.13-.21q3.2-5.88,6.5-11.76a7.51,7.51,0,0,0,.84-5A7.58,7.58,0,1,0,1.18,9.92,7.69,7.69,0,0,0,2,12.34L8.5,24.08Z"/><path class="cls-1" d="M13,8.66A4.33,4.33,0,1,1,8.65,4.33h0A4.33,4.33,0,0,1,13,8.66ZM8.64,5.42a3.25,3.25,0,1,0,3.25,3.25h0A3.25,3.25,0,0,0,8.64,5.42Z"/><circle class="cls-1" cx="8.64" cy="9" r="4"/></g></g></g></g></svg>