<svg xmlns="http://www.w3.org/2000/svg" viewBox="0 0 20.33 22.9"><defs><style>.cls-1{fill:#fff;}</style></defs><title>Asset 1</title><g id="Layer_2" data-name="Layer 2"><g id="Layer_1-2" data-name="Layer 1"><g id="Layer_2-2" data-name="Layer 2"><g id="Layer_1-2-2" data-name="Layer 1-2"><path class="cls-1" d="M.12,4.44c.09-.35.17-.71.28-1.06A4.67,4.67,0,0,1,1.48,1.47,10.53,10.53,0,0,1,2.81.31a1.69,1.69,0,0,1,2.3.32l3,3.62a1.72,1.72,0,0,1-.25,2.42l-.06,0c-.54.46-1.1.9-1.66,1.35a1.64,1.64,0,0,1-.22.14c.3.65.57,1.28.87,1.89A15.18,15.18,0,0,0,12,16c.17.12.34.22.5.35s.21.08.32,0L14.43,15a1.75,1.75,0,0,1,2.46.08l.15.18c.87,1.07,1.73,2.14,2.61,3.2a2.49,2.49,0,0,1,.68,1.35l0,.51a3.46,3.46,0,0,1-.52.82,8.2,8.2,0,0,1-1.43,1.07,5.07,5.07,0,0,1-3.67.58,12.88,12.88,0,0,1-4.09-1.65,19.75,19.75,0,0,1-4.46-3.69A30.46,30.46,0,0,1,1.41,11,11.24,11.24,0,0,1,.07,6.84,7.37,7.37,0,0,1,0,5.62Z"/></g></g></g></g></svg>