<svg xmlns="http://www.w3.org/2000/svg">
<defs>
<font id="UTMLibelKT" horiz-adv-x="643" >
  <font-face 
    font-family="UTM Libel KT"
    font-weight="400"
    font-stretch="normal"
    units-per-em="2048"
    panose-1="2 4 6 3 5 5 6 2 2 4"
    ascent="1638"
    descent="-410"
    x-height="1149"
    cap-height="1473"
    bbox="-155 -387 4942 2045"
    underline-thickness="109"
    underline-position="-359"
    unicode-range="U+0020-2026"
  />
<missing-glyph horiz-adv-x="5040" 
d="M3351 2045h10q37 -10 37 -52q0 -12 -32 -57h-28q0 24 28 54l2 10q-5 13 -10 15h-9q-8 0 -10 -19h-30q6 49 42 49zM2019 2016l29 -31q0 -16 -40 -30h-19l-59 12l-11 -12l-28 25q11 29 43 29h11l42 -11h2q10 0 30 18zM468 1980h142v-60h-94v-75h89v-59h-89v-129l-5 -5h-49
v323zM1155 1980h43l6 -5v-78h30v-52h-30v-188l-6 -5h-49v193h-25v52h25v78zM1621 1980h42l4 -5v-94h3q23 24 54 24h2q58 0 83 -71l2 -39v-143h-52v115q0 80 -42 80h-7q-43 0 -43 -86v-109h-51v323zM2200 1980h49l5 -5v-222q10 -51 45 -51q44 7 44 59v214l5 5h49v-216
q0 -85 -66 -112q-15 -8 -35 -8q-47 0 -82 55q-14 24 -14 57v224zM2435 1980h159v-60h-56v-268h-53v268h-55v55zM2621 1980h71q7 -4 83 -251h2l80 251h73v-328h-54v242h-2l-74 -242h-44q-4 0 -58 182l-19 60h-3v-242h-55v328zM3760 1980h52v-328h-45l-5 5v11l3 2l-3 14
q-29 -40 -78 -40q-67 0 -100 91l-5 39v3q0 94 92 125l23 3q35 0 63 -32h3v107zM2057 1928h36l4 -6v-49h-45v-221h-48v23q-23 -31 -59 -31q-89 14 -89 97v156h51v-104q0 -79 26 -86l18 -5h6q26 0 39 36l3 26v133h53v25zM3476 1928v-55h-31v-221h-47v25h-2q-15 -33 -57 -33
q-68 0 -86 78l-3 29v146h52v-120q0 -50 19 -68l21 -7h9q42 0 42 69v126h27q4 0 4 28l3 3h49zM758 1905q68 0 103 -77q9 -18 12 -54q0 -88 -90 -127l-32 -3q-63 0 -101 73q-12 22 -12 52v10q0 94 101 126h19zM1011 1905h3q74 0 83 -101v-152h-51v119q0 76 -42 76h-5
q-44 0 -44 -76v-119h-52v245h46v-21q30 29 62 29zM1466 1905h7q72 0 105 -89h-60q-16 31 -42 31h-17q-53 -14 -53 -61l-3 -15q12 -69 61 -69h9q22 0 47 27h40l2 3h3l2 -3l2 3l3 -3l2 3l2 -7q-33 -81 -110 -81q-76 0 -110 94l-4 36v3q0 85 77 120q15 8 37 8zM3141 1905h2

<glyph glyph-name=".notdef" horiz-adv-x="5040" 
d="M3351 2045h10q37 -10 37 -52q0 -12 -32 -57h-28q0 24 28 54l2 10q-5 13 -10 15h-9q-8 0 -10 -19h-30q6 49 42 49zM2019 2016l29 -31q0 -16 -40 -30h-19l-59 12l-11 -12l-28 25q11 29 43 29h11l42 -11h2q10 0 30 18zM468 1980h142v-60h-94v-75h89v-59h-89v-129l-5 -5h-49
v323zM1155 1980h43l6 -5v-78h30v-52h-30v-188l-6 -5h-49v193h-25v52h25v78zM1621 1980h42l4 -5v-94h3q23 24 54 24h2q58 0 83 -71l2 -39v-143h-52v115q0 80 -42 80h-7q-43 0 -43 -86v-109h-51v323zM2200 1980h49l5 -5v-222q10 -51 45 -51q44 7 44 59v214l5 5h49v-216
q0 -85 -66 -112q-15 -8 -35 -8q-47 0 -82 55q-14 24 -14 57v224zM2435 1980h159v-60h-56v-268h-53v268h-55v55zM2621 1980h71q7 -4 83 -251h2l80 251h73v-328h-54v242h-2l-74 -242h-44q-4 0 -58 182l-19 60h-3v-242h-55v328zM3760 1980h52v-328h-45l-5 5v11l3 2l-3 14
q-29 -40 -78 -40q-67 0 -100 91l-5 39v3q0 94 92 125l23 3q35 0 63 -32h3v107zM2057 1928h36l4 -6v-49h-45v-221h-48v23q-23 -31 -59 -31q-89 14 -89 97v156h51v-104q0 -79 26 -86l18 -5h6q26 0 39 36l3 26v133h53v25zM3476 1928v-55h-31v-221h-47v25h-2q-15 -33 -57 -33
q-68 0 -86 78l-3 29v146h52v-120q0 -50 19 -68l21 -7h9q42 0 42 69v126h27q4 0 4 28l3 3h49zM758 1905q68 0 103 -77q9 -18 12 -54q0 -88 -90 -127l-32 -3q-63 0 -101 73q-12 22 -12 52v10q0 94 101 126h19zM1011 1905h3q74 0 83 -101v-152h-51v119q0 76 -42 76h-5
q-44 0 -44 -76v-119h-52v245h46v-21q30 29 62 29zM1466 1905h7q72 0 105 -89h-60q-16 31 -42 31h-17q-53 -14 -53 -61l-3 -15q12 -69 61 -69h9q22 0 47 27h40l2 3h3l2 -3l2 3l3 -3l2 3l2 -7q-33 -81 -110 -81q-76 0 -110 94l-4 36v3q0 85 77 120q15 8 37 8zM3141 1905h2
q49 0 70 -60v-14h-52q0 16 -16 16h-4q-14 0 -19 -13v-13q0 -9 68 -35q30 -19 30 -59q0 -58 -61 -80l-23 -3q-76 12 -76 83h54q0 -20 27 -25h4q19 0 24 23q0 22 -68 44q-34 27 -34 59q0 66 74 77zM4203 1905q55 0 77 -63q7 -18 7 -65v-125h-52v112q0 83 -40 83h-11
q-33 0 -40 -54v-141h-52v5h-2l2 2v238h47v-21q25 29 64 29zM4432 1905h5q40 0 69 -40v18l-3 3l3 11h47v-208q0 -97 -85 -132l-33 -4h-7q-70 0 -104 80h59q24 -22 45 -23h13q22 0 43 22q15 13 22 52h-3q-32 -40 -73 -40q-57 0 -96 70q-10 18 -14 63q0 88 87 125zM3851 1897
h53v-136q6 -59 40 -59h7q46 0 46 93v102h51v-245h-47l-3 10h3l-3 3v5l3 2v3h-4q0 -23 -57 -31h-3q-59 0 -84 75l-2 85v93zM690 1771q10 -69 63 -69h7q59 14 59 65v15q-13 65 -59 65h-5q-58 0 -65 -76zM3630 1774q13 -72 61 -72h5q58 0 66 75q0 49 -51 70h-22q-37 0 -56 -57z
M4374 1774q8 -72 65 -72h5q59 12 59 72q0 61 -59 73h-14q-56 -16 -56 -62v-11zM3928 1620h52v-57h-52v57zM1054 1402q43 -11 43 -49v-4q0 -17 -32 -60h-28q0 25 31 57v7q0 12 -7 15h-12q-10 -4 -10 -19h-28v6q0 32 33 44zM3349 1339q92 0 138 -99h-60q-37 42 -80 42
q-55 0 -87 -68q-10 -22 -10 -47q0 -78 81 -110l18 -1q36 0 75 39h61q-44 -97 -138 -97q-93 0 -141 112q-10 31 -10 62q0 97 90 152q29 15 63 15zM3664 1339q57 0 103 -47q46 -51 46 -115v-20q0 -89 -91 -146q-33 -13 -63 -13q-89 0 -138 101q-13 33 -13 60v18q0 98 98 151
q29 11 58 11zM2261 1337h2l47 -11h3q11 0 26 11l18 -36q-18 -19 -35 -19h-3l-54 10l-20 -7l-20 36q18 16 36 16zM716 1334h19q118 0 129 -26q25 -26 25 -62q-10 -57 -30 -57v-6q47 -23 47 -66v-18q0 -63 -69 -88l-54 -5h-67v328zM2550 1334h53v-217q6 -61 45 -61q29 0 44 39
l3 30v203l4 6h45l5 -6v-171q0 -118 -40 -133q-24 -26 -64 -26q-55 0 -91 76l-4 54v206zM2805 1334h59q4 0 122 -237h4v237h50l4 -6v-322h-58q-29 48 -125 238h-3v-238h-53v328zM3101 1334h54v-328h-54v328zM3859 1334h8q155 0 174 -40q23 -11 47 -75l4 -36v-11l3 -2
q0 -94 -82 -149q-35 -15 -99 -15h-55v328zM4141 1334h153v-60h-103v-75h101v-57h-101v-74l4 -5h99v-57h-157v322zM3563 1175v-10q0 -76 79 -108l19 -1q68 0 96 86l3 20v15q0 61 -60 94q-12 8 -39 11q-66 0 -96 -83zM770 1274v-67h9q54 0 54 28l3 14q-11 25 -29 25h-37z
M3912 1274v-206l2 -3v-2q104 0 122 76l2 15v29q0 34 -32 68q-25 23 -78 23h-16zM1041 1259h5q38 0 71 -40v32h49v-245h-49v32q-36 -40 -80 -40q-75 0 -101 97l-5 36q0 89 85 125zM1314 1259h3q74 0 83 -102v-151h-51v128q0 67 -42 67h-10q-34 0 -39 -62v-133h-52v245h47v-21
q28 29 61 29zM1543 1259h5q45 0 71 -40v32h47v-219q0 -95 -104 -126h-16q-74 0 -108 82h59q26 -25 44 -25h14q52 0 64 77q-33 -42 -76 -42q-60 0 -101 81l-7 44v16q0 79 85 117zM1912 1259h2q43 0 61 -37h2q32 37 69 37h4q57 0 79 -55q8 -25 8 -45v-153h-52v138q0 44 -23 55
l-12 2h-15q-32 0 -36 -65v-130h-52v136q0 59 -43 59h-8q-32 0 -36 -57v-138h-54v245h50v-21h2q6 24 54 29zM2282 1259q47 0 75 -42v34h47v-245h-47v32q-36 -40 -78 -40q-74 0 -102 92l-6 41q0 90 85 125zM985 1117q0 -48 61 -61h4q45 0 62 46l3 15v22q-12 62 -57 62h-14
q-41 0 -59 -57v-27zM1487 1128q0 -48 43 -68l18 -4h5q47 0 63 57v23q-11 65 -58 65h-12q-50 0 -59 -73zM2225 1131v-14q15 -61 57 -61h14q58 12 58 64v11q0 45 -37 65l-18 5h-10q-64 -8 -64 -70zM770 1150v-82q0 -5 7 -5q77 0 77 45q0 34 -47 42h-37zM2966 753l24 -28
l-51 -55q-18 12 -27 26zM1524 727l85 -54q0 -15 -21 -42l-87 54q18 41 23 42zM2850 693h38l55 -60h-54l-21 26l-23 -26h-54q54 60 59 60zM3422 693h40l56 -60h-54l-24 26h-1q0 -5 -19 -26h-54zM622 685h52q8 -4 47 -137l34 -110q9 8 34 100l48 147h54v-2l-112 -326h-44z
M1159 685h51v-54h-51v54zM1354 685h46l6 -5v-323h-52v328zM2317 685h45l4 -5v-78h31v-52h-31v-193h-53v193h-26v52h26v78zM2425 685h52v-98h2q23 23 54 23h3q57 0 81 -71l3 -38v-144h-52v115q0 81 -39 81h-10q-42 0 -42 -87v-109h-52v328zM2664 685h52v-54h-52v54zM3028 685
h44l6 -5v-78h29v-52h-29v-193h-54v193h-27v52h27v78zM3234 685h52v-328h-52v328zM3957 685h52v-328h-52v328zM4316 685h51v-54h-51v54zM1555 610h5q83 0 110 -102l3 -23v-11q0 -83 -85 -120l-35 -5q-76 0 -111 97l-4 32q0 97 93 130zM1811 610h4q53 0 78 -60q7 -25 7 -81
v-112h-54v146q-7 50 -37 50h-10q-38 0 -42 -57v-139h-54v245h49v-21q26 29 59 29zM2046 610h4q45 0 63 -39h3v31h49v-206q0 -102 -89 -135l-28 -3h-5q-73 0 -106 81h52l37 -20l15 -3h14q50 0 61 72q-33 -39 -73 -39q-62 0 -98 76q-11 23 -12 60q0 85 86 123zM2866 610h2
q82 0 111 -104l2 -25l-2 -27h-172q15 -45 45 -45l14 -3q29 0 49 22h57v-3q-35 -76 -108 -76q-77 0 -111 97l-1 28v8q0 49 32 89q34 39 82 39zM3429 610h5q41 0 70 -39h2v31h47v-245h-47v31h-2q-35 -39 -77 -39q-71 0 -101 89l-5 36v14q0 86 84 120zM3711 610h7
q88 0 107 -128l-2 -1v-15q0 -65 -66 -106q-21 -11 -46 -11q-34 0 -64 32v-99l-5 -5h-49v325h49v-28q31 36 69 36zM4151 610q44 0 75 -39v31h49v-245h-49v31q-35 -39 -77 -39q-92 0 -108 132q0 84 73 121q15 8 37 8zM922 602h50v-136q3 -60 42 -60h5q44 0 44 87v109h52v-245
h-47v24h-5q0 -23 -56 -32h-3q-55 0 -82 68q-4 35 -4 99v81zM1159 602h51v-245h-51v245zM2664 602h52v-245h-52v245zM4316 602h51v-245h-51v245zM1492 488v-16q13 -66 59 -66h4q59 0 66 76q-13 71 -59 71h-11q-59 -16 -59 -65zM1987 472q15 -66 59 -66h11q48 0 59 75v1
q-13 71 -59 71h-14q-39 0 -56 -57v-24zM2805 506h122v2q-16 45 -59 45h-7q-35 0 -56 -47zM3373 474q13 -68 61 -68h5q52 0 65 63v12q-10 72 -57 72h-16q-56 -14 -56 -63zM3642 478q12 -72 61 -72h3q50 0 65 60v22q0 43 -49 65h-22q-47 0 -58 -72v-3zM4095 472q10 -66 66 -66
q43 0 61 48l2 15v16q0 54 -52 68h-18q-42 0 -59 -60v-21zM3416 321h51v-52h-51v52zM4137 321h51v-52h-51v52zM2733 133h4q35 0 43 -50v-2q0 -16 -24 -41l-10 -17h-28q0 25 28 56l3 2v2q-3 19 -9 19h-10q-8 0 -9 -19h-30q6 50 42 50zM1546 116l52 -60l-26 -19l-52 52zM352 79
h4q75 -48 85 -60l-20 -37q-88 49 -88 58zM3490 79l86 -58l-18 -39q-10 0 -91 55q15 36 23 42zM4578 76l19 -42l-91 -52l-20 39l92 58v-3zM1204 53h51v-19l5 -5h14v-36h-14l-5 -5v-279h-46v31q-34 -40 -81 -40q-72 0 -102 105l-3 26q0 102 101 131h14q33 0 66 -33v59l-6 5
h-43v36h49v24zM1480 45h40l56 -61h-53l-23 27l-23 -27h-53zM2641 45h33q12 0 63 -61h-54l-23 27q-19 -21 -19 -27h-58v4zM49 37h160v-60h-56v-268h-50l-4 5v245l2 3v2l-2 2l2 3l-2 2l2 3l-2 3h-54v54zM699 37h47v-73l2 -2l-2 -3v-3l2 -2l-2 -3v-3l2 -2v-2l-2 -3l2 -3h3
q17 24 51 24h3q53 0 77 -58q7 -17 7 -42v-153h-52v127q0 68 -40 68h-8q-43 0 -43 -86v-109h-52v322zM1297 37h47l5 -6v-49h-52v55zM1987 37h52v-198l70 115h62l-78 -118l90 -125v-2h-70q-10 22 -74 115v-115h-52v328zM2271 37v-99q24 24 53 24q57 0 80 -56q10 -19 10 -77
v-120h-54v133q0 62 -41 62h-11q-31 0 -37 -55v-140h-53v314l-1 3v3l1 2l-1 3l1 3h53zM2458 37h51v-55h-51v55zM3148 37h51v-108q27 33 68 33h3q75 0 105 -94l5 -37q0 -75 -64 -120q-30 -11 -49 -11q-41 0 -72 40v-31h-47v328zM4275 37h52v-99h2q23 24 54 24h3q60 0 82 -74
l2 -41v-138h-52v111q0 82 -32 82l-10 2h-12q-37 0 -37 -80v-115h-52v328zM329 -38h3v-58h-5q-42 0 -42 -57v-138h-53v245h47v-21q18 29 50 29zM564 -38q71 0 86 -87v-166h-51v136q-6 59 -41 59h-6q-45 0 -45 -84v-111h-52v245h50v-21q25 29 59 29zM1504 -38q72 0 105 -94
l5 -39q-2 -24 -7 -24h-169q17 -47 62 -47q24 0 48 21h57q-33 -79 -108 -79q-82 0 -113 105v37q0 81 89 117zM2657 -38h5q77 0 107 -97l3 -26v-21l-3 -13h-170q18 -47 53 -47h12q21 0 42 21h59q-34 -79 -105 -79q-84 0 -115 102l-2 29q0 93 91 128zM2915 -38h4q54 0 78 -60
q7 -25 7 -82v-111h-54v138q0 48 -35 57h-11q-38 0 -43 -57v-138h-54v245h50v-21q25 29 58 29zM3508 -38h6q40 0 70 -40h2v32h47v-245h-47v31h-2q-34 -40 -78 -40q-71 0 -101 90l-4 37v12q0 82 77 117q11 6 30 6zM3781 -38h4q62 0 82 -78l3 -84v-91h-54v138q0 48 -38 57h-9
q-38 0 -42 -52v-143h-54v245h49v-21q26 29 59 29zM4133 -38h1q74 0 104 -93l4 -40q0 -88 -84 -126l-25 -3q-41 0 -68 34v-106h-52v326h47v-29q30 37 73 37zM4714 -38h5q34 0 63 -37q27 37 69 37h6q56 0 79 -66l6 -51v-136h-52v122q0 73 -39 73h-7q-35 0 -41 -50v-140l-5 -5
h-48v140q0 42 -31 55h-17q-40 0 -40 -77v-118h-51v245h47v-21q22 29 56 29zM359 -46h49l5 -6v-234l-5 -5h-49v245zM1297 -46h52v-245h-52v245zM1649 -46h52v-136q4 -60 43 -60h4q44 0 44 81v115h52v-245h-47v24h-5q-12 -33 -59 -33q-52 0 -79 63q-5 12 -5 34v157zM2458 -46
h51v-245h-51v245zM4515 -46h51v-245h-51v245zM1077 -169q0 -53 51 -73h12q54 0 66 66v10q0 53 -54 70h-17q-38 0 -58 -57v-16zM1438 -143h122q-18 47 -53 47h-7q-43 0 -62 -44v-3zM2599 -143h122q-21 47 -54 47h-7q-46 0 -61 -47zM3196 -158v-11q10 -73 61 -73h5q64 8 64 71
v5q0 45 -38 65l-18 5h-14q-60 -14 -60 -62zM3452 -173q14 -69 62 -69h11q41 0 59 60v13q-8 73 -56 73h-17q-47 0 -59 -73v-4zM4062 -158v-22q0 -47 59 -62h9q50 0 61 76q-13 70 -58 70h-15q-56 -17 -56 -62z" />
    <glyph glyph-name=".null" horiz-adv-x="0" 
 />
    <glyph glyph-name="nonmarkingreturn" horiz-adv-x="571" 
 />
    <glyph glyph-name="space" unicode=" " horiz-adv-x="387" 
 />
    <glyph glyph-name="exclam" unicode="!" horiz-adv-x="280" 
d="M165 449h-55l-72 1024h199zM220 104q0 -41 -21.5 -71.5t-58.5 -30.5q-36 0 -61 32t-25 70q0 41 25 73t61 32q37 0 58.5 -31t21.5 -74z" />
    <glyph glyph-name="quotedbl" unicode="&#x22;" horiz-adv-x="833" 
 />
    <glyph glyph-name="numbersign" unicode="#" horiz-adv-x="724" 
d="M710 1122l-26 -100h-138l-59 -213h137l-26 -100h-138l-96 -353h-102l96 353h-119l-96 -353h-102l96 353h-121l29 100h121l57 213h-121l29 100h121l96 351h100l-96 -351h121l96 351h100l-96 -351h137zM444 1022h-119l-59 -213h121z" />
    <glyph glyph-name="dollar" unicode="$" horiz-adv-x="620" 
d="M595 563q0 -55 -20.5 -104t-55 -87t-81.5 -63.5t-101 -32.5v-98h-63v101q-53 6 -99.5 30.5t-80 63.5t-53 87t-19.5 103v80l166 -37v-43q0 -90 86 -117v308q-78 39 -127 72.5t-77 72.5t-38 85t-10 108q0 55 19.5 104t54.5 87t80 62.5t98 30.5v97h63v-95q54 -6 101 -30.5
t81.5 -63.5t55 -88t20.5 -104v-80l-165 37v43q0 96 -93 118v-311q82 -43 133.5 -79t79 -72.5t36.5 -79.5t9 -105zM274 936v272q-86 -24 -86 -116q0 -99 86 -156zM430 563q0 96 -93 156v-273q93 21 93 117z" />
    <glyph glyph-name="percent" unicode="%" horiz-adv-x="974" 
d="M448 1079q0 -43 -16.5 -82t-45 -67.5t-67.5 -45t-82 -16.5t-82 16.5t-68.5 45t-46 67.5t-16.5 82v207q0 43 16.5 82t46 67.5t68.5 45t82 16.5t82 -16.5t67.5 -45t45 -67.5t16.5 -82v-207zM774 1473l-484 -1471h-96l489 1471h91zM948 184q0 -43 -16.5 -82t-45 -67.5
t-67.5 -45t-82 -16.5t-82 16.5t-67.5 45t-45 67.5t-16.5 82v209q0 43 16.5 82t45 67.5t67.5 45t82 16.5t82 -16.5t67.5 -45t45 -67.5t16.5 -82v-209zM325 1079v207q0 37 -25.5 63.5t-62.5 26.5t-63.5 -26.5t-26.5 -63.5v-207q0 -37 26.5 -63.5t63.5 -26.5t62.5 26.5
t25.5 63.5zM827 184v209q0 37 -26.5 63.5t-63.5 26.5t-63.5 -26.5t-26.5 -63.5v-209q0 -37 26.5 -63.5t63.5 -26.5t63.5 26.5t26.5 63.5z" />
    <glyph glyph-name="ampersand" unicode="&#x26;" horiz-adv-x="704" 
d="M620 139q32 0 57 29v-186q-27 -9 -61 -9q-99 0 -150 76q-82 -76 -182 -76q-49 0 -94.5 20.5t-79 58.5t-53 91.5t-19.5 116.5v318q0 110 117 176q-117 57 -117 188v270q0 64 19.5 117t54.5 90t82 57.5t102 20.5q57 0 104.5 -21.5t82 -59.5t54 -90t19.5 -114v-47l-166 -55
v102q0 58 -27.5 89.5t-66.5 31.5q-37 0 -64.5 -31.5t-27.5 -89.5v-254q0 -122 170 -122h16v82l146 55v-137h141v-166h-141v-410q0 -57 24.5 -89t59.5 -32zM390 670h-16q-170 0 -170 -142v-268q0 -57 27.5 -89t64.5 -32q39 0 66.5 32t27.5 89v410z" />
    <glyph glyph-name="quotesingle" unicode="'" horiz-adv-x="194" 
d="M120 1020h-49l-49 477h147z" />
    <glyph glyph-name="parenleft" unicode="(" horiz-adv-x="325" 
d="M292 -164q-53 6 -100 32t-82 63.5t-54.5 87t-19.5 104.5v1229q0 55 19.5 104t54.5 87t82 63.5t100 31.5v-170q-90 -22 -90 -116v-1229q0 -94 90 -117v-170z" />
    <glyph glyph-name="parenright" unicode=")" horiz-adv-x="325" 
d="M286 123q0 -55 -19.5 -104.5t-54.5 -87t-82 -63.5t-100 -32v170q90 23 90 117v1229q0 94 -90 116v170q53 -6 100 -31.5t82 -63.5t54.5 -87t19.5 -104v-1229z" />
    <glyph glyph-name="asterisk" unicode="*" horiz-adv-x="651" 
d="M634 936l-63 -88l-217 182l27 -285h-109l25 287l-220 -184l-61 88l258 151l-252 146l64 88l211 -180l-25 274h109l-27 -272l211 178l61 -88l-252 -146z" />
    <glyph glyph-name="plus" unicode="+" horiz-adv-x="507" 
d="M491 655h-158v-168h-165v168h-152v166h152v166h165v-166h158v-166z" />
    <glyph glyph-name="comma" unicode="," horiz-adv-x="225" 
d="M79 -326h-49l41 478h147z" />
    <glyph glyph-name="hyphen" unicode="-" horiz-adv-x="563" 
d="M518 666h-475v145h475v-145z" />
    <glyph glyph-name="hyphen" unicode="&#x2010;" horiz-adv-x="563" 
d="M518 666h-475v145h475v-145z" />
    <glyph glyph-name="period" unicode="." horiz-adv-x="229" 
d="M194 104q0 -41 -21.5 -71.5t-60.5 -30.5q-35 0 -59.5 32t-24.5 70q0 41 24.5 73t59.5 32q39 0 60.5 -31t21.5 -74z" />
    <glyph glyph-name="slash" unicode="/" horiz-adv-x="589" 
d="M586 1554l-484 -1636h-98l489 1636h93z" />
    <glyph glyph-name="zero" unicode="0" horiz-adv-x="653" 
d="M611 260q0 -59 -22.5 -111.5t-61 -91.5t-91 -61.5t-111.5 -22.5q-60 0 -112 22.5t-91 61.5t-61.5 91.5t-22.5 111.5v948q0 60 22.5 112t61.5 91t91 61.5t112 22.5q59 0 111.5 -22.5t91 -61.5t61 -91t22.5 -112v-948zM446 260v948q0 52 -36 86.5t-85 34.5q-51 0 -86 -34.5
t-35 -86.5v-948q0 -51 35 -86t86 -35q49 0 85 35t36 86z" />
    <glyph glyph-name="one" unicode="1" horiz-adv-x="337" 
d="M293 0h-166v1231h-115v137q115 0 115 105h166v-1473z" />
    <glyph glyph-name="two" unicode="2" horiz-adv-x="638" 
d="M609 0h-573v289q0 33 4 63.5t13.5 62t23.5 66.5t37 76q18 35 57 96.5t80 128t80 129t57 99.5q35 65 45.5 110t10.5 90q0 52 -36 86.5t-85 34.5q-51 0 -86 -34.5t-35 -86.5v-43l-166 -37v80q0 60 19.5 112t56.5 91t90 61.5t121 22.5q65 0 118.5 -22.5t90 -61.5t57 -91
t20.5 -112q0 -28 -1 -55t-8 -57.5t-22.5 -68.5t-43.5 -93q-19 -35 -53.5 -92.5t-75.5 -124t-80 -131t-64 -111.5q-59 -119 -59 -188v-123h407v-166z" />
    <glyph glyph-name="three" unicode="3" horiz-adv-x="641" 
d="M603 260q0 -63 -22.5 -116.5t-61 -91.5t-91 -58.5t-111.5 -20.5q-60 0 -112 22.5t-91 61.5t-61.5 91.5t-22.5 111.5v74l166 -55v-19q0 -51 35 -86t86 -35q49 0 85 35t36 86v244q0 86 -41 128t-148 42v133q53 0 87 8t54.5 27.5t27.5 52.5t7 80v235q0 52 -29.5 86.5
t-78.5 34.5q-51 0 -86 -34.5t-35 -86.5v-47h-166v47q0 70 22.5 123t61.5 90t91 55.5t112 18.5q59 0 109 -22.5t87 -61.5t57.5 -91t20.5 -112v-247q0 -93 -45 -145t-102 -70q28 -7 57 -25t51.5 -48t36.5 -70t14 -89v-256z" />
    <glyph glyph-name="four" unicode="4" horiz-adv-x="653" 
d="M627 512h-89v-512h-165v512h-367l92 662h154l-66 -496h187v795h165v-795h89v-166z" />
    <glyph glyph-name="five" unicode="5" 
d="M605 260q0 -59 -22.5 -111.5t-61 -91.5t-91 -61.5t-111.5 -22.5q-60 0 -112 22.5t-91 61.5t-61.5 91.5t-22.5 111.5v74l166 -55v-19q0 -51 35 -86t86 -35q49 0 85 35t36 86v602q0 49 -43 87t-93 38q-55 0 -83.5 -31.5t-36.5 -72.5l-150 41l43 549h528v-166h-391l-16 -213
q22 22 56 38.5t93 16.5q64 0 112 -22.5t81 -61.5t49 -91t16 -112v-602z" />
    <glyph glyph-name="six" unicode="6" horiz-adv-x="649" 
d="M611 260q0 -59 -22.5 -111.5t-61 -91.5t-91 -61.5t-111.5 -22.5q-60 0 -112 22.5t-91 61.5t-61.5 91.5t-22.5 111.5v950q0 60 18.5 112t55.5 91t90 61.5t123 22.5q69 0 122.5 -22.5t90.5 -61.5t55 -91t18 -112v-47h-165v47q0 52 -36 86.5t-85 34.5q-51 0 -86 -34.5
t-35 -86.5v-239q18 18 50 35.5t99 17.5q62 0 110 -22.5t81 -62.5t50 -92t17 -112v-475zM446 260v475q0 51 -36 87t-85 36q-56 0 -88.5 -39t-32.5 -94v-465q0 -51 35 -86t86 -35q49 0 85 35t36 86z" />
    <glyph glyph-name="seven" unicode="7" horiz-adv-x="569" 
d="M554 1352l-303 -1352h-180l326 1307h-375v166h532v-121z" />
    <glyph glyph-name="eight" unicode="8" horiz-adv-x="647" 
d="M609 260q0 -59 -22.5 -111.5t-61 -91.5t-91 -61.5t-111.5 -22.5q-60 0 -112 22.5t-91 61.5t-61.5 91.5t-22.5 111.5v303q0 78 37 133.5t82 73.5q-47 18 -77 71.5t-30 127.5v241q0 136 78 211.5t197 75.5t196.5 -75.5t77.5 -211.5v-241q0 -74 -28.5 -126t-79.5 -73
q51 -20 85.5 -74.5t34.5 -132.5v-303zM431 956v254q0 52 -29.5 86.5t-78.5 34.5q-51 0 -80 -34.5t-29 -86.5v-254q0 -55 30 -86.5t81 -31.5q47 0 76.5 30.5t29.5 87.5zM444 260v315q0 56 -37 87.5t-86 31.5t-84 -30.5t-35 -88.5v-315q0 -51 35 -86t86 -35q49 0 85 35t36 86z
" />
    <glyph glyph-name="nine" unicode="9" horiz-adv-x="651" 
d="M609 260q0 -133 -80.5 -210t-205.5 -77t-206 77t-81 210v47h166v-47q0 -51 35 -86t86 -35q49 0 85 35t36 86v281q-17 -15 -56 -31t-98 -16q-47 0 -92 18t-81 55t-58.5 90.5t-22.5 122.5v430q0 60 22.5 112t61.5 91t91 61.5t112 22.5q59 0 111.5 -22.5t91 -61.5t61 -91
t22.5 -112v-950zM444 791v419q0 52 -36 86.5t-85 34.5q-51 0 -86 -34.5t-35 -86.5v-430q0 -51 35 -86t86 -35q55 0 88 38t33 94z" />
    <glyph glyph-name="colon" unicode=":" horiz-adv-x="241" 
d="M204 657q0 -41 -23.5 -71.5t-60.5 -30.5t-61.5 31.5t-24.5 70.5q0 41 24.5 73t61.5 32t60.5 -31t23.5 -74zM204 104q0 -41 -23.5 -71.5t-60.5 -30.5t-61.5 32t-24.5 70q0 41 24.5 73t61.5 32t60.5 -31t23.5 -74z" />
    <glyph glyph-name="semicolon" unicode=";" horiz-adv-x="227" 
d="M194 657q0 -41 -22.5 -71.5t-59.5 -30.5t-61.5 31.5t-24.5 70.5q0 41 24.5 73t61.5 32t59.5 -31t22.5 -74zM194 90q0 -92 -41 -150.5t-111 -58.5v53q29 0 49.5 19.5t20.5 48.5h-2q-37 0 -60.5 30.5t-23.5 71.5t24.5 73t61.5 32q82 0 82 -119z" />
    <glyph glyph-name="less" unicode="&#x3c;" horiz-adv-x="1132" 
d="M1106 383v-184l-1104 440v137l1104 443v-189l-842 -321z" />
    <glyph glyph-name="equal" unicode="=" horiz-adv-x="598" 
d="M580 823h-537v146h537v-146zM580 508h-537v145h537v-145z" />
    <glyph glyph-name="greater" unicode="&#x3e;" horiz-adv-x="1148" 
d="M885 709l-842 321v189l1104 -443v-137l-1104 -440v184z" />
    <glyph glyph-name="question" unicode="?" horiz-adv-x="602" 
d="M589 1210q0 -57 -15 -110t-41.5 -104.5t-59.5 -102.5t-68 -107q-41 -63 -70.5 -159.5t-39.5 -194.5h-97q-4 29 -6 60.5t-2 62.5q0 74 13.5 135.5t37 114.5t53 103t64.5 102q66 100 66 200q0 52 -36 86.5t-87 34.5q-49 0 -85 -34.5t-36 -86.5v-43l-166 -37v80
q0 60 19.5 112t56.5 91t90 61.5t121 22.5q67 0 120.5 -22.5t91.5 -62.5t57 -92t19 -110zM350 104q0 -41 -20.5 -71.5t-57.5 -30.5t-62.5 32t-25.5 70q0 41 25.5 73t62.5 32t57.5 -31t20.5 -74z" />
    <glyph glyph-name="at" unicode="@" horiz-adv-x="1572" 
d="M1034 248q14 -62 88 -62q49 0 99 28t90 90.5t65.5 164.5t25.5 252q0 141 -44 256t-118.5 195.5t-176 123.5t-218.5 43q-147 0 -267 -58t-206 -163.5t-133 -252t-47 -322.5q0 -162 40 -295t98 -233.5t123.5 -165t117.5 -87.5l-82 -149q-68 25 -149 94.5t-149.5 185
t-114.5 278.5t-46 372q0 205 53 379t157.5 302t256 200.5t348.5 72.5q166 0 298 -51t223 -150.5t139.5 -244t48.5 -330.5q0 -166 -35 -294t-93.5 -215t-132 -132t-153.5 -45q-84 0 -137 25.5t-86 66.5q-17 -21 -54.5 -47.5t-109.5 -26.5q-53 0 -96 22.5t-75 61.5t-49.5 91.5
t-17.5 111.5v381q0 59 15.5 111.5t44 91.5t71.5 61.5t97 22.5q53 0 90 -20.5t51 -43.5v55l150 56v-807zM884 721q0 49 -33 85t-78 36q-47 0 -77.5 -36t-30.5 -85v-381q0 -51 30.5 -86t77.5 -35q45 0 78 35t33 86v381z" />
    <glyph glyph-name="A" unicode="A" horiz-adv-x="641" 
d="M620 0h-168l-22 182h-211l-23 -182h-176l227 1473h150zM409 338l-84 645l-86 -645h170z" />
    <glyph glyph-name="B" unicode="B" horiz-adv-x="651" 
d="M616 295q0 -55 -22.5 -108.5t-61 -94.5t-88 -66.5t-104.5 -25.5h-297v1473h279q55 0 104 -26t88 -67t61.5 -94t22.5 -108v-205q0 -78 -34 -130t-91 -87q27 -11 53.5 -32.5t46 -51t31.5 -63.5t12 -70v-244zM209 1307v-473h84q26 0 53 13t47.5 34.5t32.5 51.5t12 60v156
q0 68 -38 113t-107 45h-84zM451 324v194q0 64 -44.5 112t-101.5 48h-96v-512h96q70 0 108 45t38 113z" />
    <glyph glyph-name="C" unicode="C" 
d="M611 260q0 -59 -22.5 -111.5t-61 -91.5t-91 -61.5t-111.5 -22.5q-60 0 -112 22.5t-91 61.5t-61.5 91.5t-22.5 111.5v950q0 60 22.5 112t61.5 91t91 61.5t112 22.5q59 0 111.5 -22.5t91 -61.5t61 -91t22.5 -112v-47h-165v47q0 52 -36 86.5t-85 34.5q-51 0 -86 -34.5
t-35 -86.5v-950q0 -51 35 -86t86 -35q49 0 85 35t36 86v19l165 55v-74z" />
    <glyph glyph-name="D" unicode="D" horiz-adv-x="657" 
d="M616 287q0 -60 -22.5 -112t-61 -91t-91 -61.5t-111.5 -22.5h-287v1473h287q59 0 111.5 -23t91 -61.5t61 -91t22.5 -111.5v-899zM451 287v899q0 51 -36 86t-85 35h-121v-1141h121q49 0 85 35t36 86z" />
    <glyph glyph-name="E" unicode="E" horiz-adv-x="555" 
d="M530 0h-487v1473h487v-166h-321v-467h186v-166h-186v-508h321v-166z" />
    <glyph glyph-name="F" unicode="F" horiz-adv-x="555" 
d="M551 1307h-342v-514h217v-166h-217v-627h-166v1473h508v-166z" />
    <glyph glyph-name="G" unicode="G" horiz-adv-x="665" 
d="M626 0h-111l-18 63q-29 -45 -71 -67.5t-93 -22.5q-59 0 -112.5 22.5t-94.5 61.5t-64.5 91.5t-23.5 111.5v950q0 60 22.5 112t61.5 91t91 61.5t112 22.5q59 0 111.5 -22.5t91 -61.5t61 -91t22.5 -112v-47h-165v47q0 52 -36 86.5t-85 34.5q-51 0 -86 -34.5t-35 -86.5v-950
q0 -51 39 -86t90 -35q49 0 88 35t39 86v399h-137v154h303v-813z" />
    <glyph glyph-name="H" unicode="H" horiz-adv-x="661" 
d="M616 0h-165v664h-242v-664h-166v1473h166v-644h242v644h165v-1473z" />
    <glyph glyph-name="I" unicode="I" horiz-adv-x="256" 
d="M209 0h-166v1473h166v-1473z" />
    <glyph glyph-name="J" unicode="J" horiz-adv-x="620" 
d="M577 260q0 -59 -22.5 -111.5t-61 -91.5t-91 -61.5t-111.5 -22.5q-60 0 -112 22.5t-91 61.5t-61.5 91.5t-22.5 111.5v74l166 -55v-19q0 -51 35 -86t86 -35q49 0 85 35t36 86v1213h165v-1213z" />
    <glyph glyph-name="K" unicode="K" horiz-adv-x="714" 
d="M682 0h-184l-289 748v-748h-166v1473h166v-500l276 500h197l-350 -596z" />
    <glyph glyph-name="L" unicode="L" horiz-adv-x="495" 
d="M492 0h-449v1473h166v-1307h283v-166z" />
    <glyph glyph-name="M" unicode="M" horiz-adv-x="919" 
d="M877 0h-156v795l-191 -795h-141l-188 795v-795h-158v1473h203l223 -1076l242 1076h166v-1473z" />
    <glyph glyph-name="N" unicode="N" horiz-adv-x="661" 
d="M616 0h-165l-252 834v-834h-156v1473h166l252 -910v910h155v-1473z" />
    <glyph glyph-name="O" unicode="O" horiz-adv-x="653" 
d="M611 260q0 -59 -22.5 -111.5t-61 -91.5t-91 -61.5t-111.5 -22.5q-60 0 -112 22.5t-91 61.5t-61.5 91.5t-22.5 111.5v950q0 60 22.5 112t61.5 91t91 61.5t112 22.5q59 0 111.5 -22.5t91 -61.5t61 -91t22.5 -112v-950zM446 260v950q0 52 -36 86.5t-85 34.5q-51 0 -86 -34.5
t-35 -86.5v-950q0 -51 35 -86t86 -35q49 0 85 35t36 86z" />
    <glyph glyph-name="P" unicode="P" horiz-adv-x="626" 
d="M616 909q0 -53 -22.5 -106t-61 -96t-88 -70t-104.5 -27h-131v-610h-166v1473h297q55 0 104.5 -26t88 -67t61 -94t22.5 -108v-269zM451 936v213q0 68 -38 113t-108 45h-96v-531h96q57 0 101.5 48t44.5 112z" />
    <glyph glyph-name="Q" unicode="Q" horiz-adv-x="696" 
d="M665 -18l-111 -109l-121 123q-55 -23 -112 -23q-60 0 -112 22.5t-91 61.5t-61.5 91.5t-22.5 111.5v950q0 60 22.5 112t61.5 91t91 61.5t112 22.5q59 0 111.5 -22.5t91 -61.5t61 -91t22.5 -112v-950q0 -90 -53 -166zM442 260v950q0 52 -36 86.5t-85 34.5q-51 0 -86 -34.5
t-35 -86.5v-950q0 -51 35 -86t86 -35q49 0 85 35t36 86z" />
    <glyph glyph-name="R" unicode="R" horiz-adv-x="655" 
d="M616 0h-165v520q0 64 -44.5 112t-101.5 48h-96v-680h-166v1473h287q55 0 104 -26t88 -67t61.5 -94t22.5 -108v-203q0 -72 -37 -126t-96 -75q59 -26 101 -86.5t42 -146.5v-541zM440 993v156q0 68 -37.5 113t-107.5 45h-86v-473h86q57 0 101 48t44 111z" />
    <glyph glyph-name="S" unicode="S" horiz-adv-x="649" 
d="M317 1497q59 0 111.5 -22.5t91 -61.5t61 -91t22.5 -112v-80l-165 37v43q0 52 -36 86.5t-85 34.5q-51 0 -86 -34.5t-35 -86.5q0 -57 17.5 -108t45.5 -101q27 -47 63 -94t73.5 -97t74.5 -103.5t68 -114.5q35 -72 56.5 -153t21.5 -179q0 -59 -23.5 -111.5t-63.5 -91.5
t-93.5 -61.5t-112.5 -22.5q-60 0 -113 22.5t-93 61.5t-63.5 91.5t-23.5 111.5v80l166 -37v-43q0 -51 38 -86t89 -35q49 0 88 35t39 86q0 76 -16.5 138.5t-45.5 115.5q-28 55 -65 103.5t-75 95.5t-75 96t-67 104q-35 62 -55.5 133.5t-20.5 163.5q0 60 22.5 112t61.5 91
t91 61.5t112 22.5z" />
    <glyph glyph-name="T" unicode="T" horiz-adv-x="503" 
d="M504 1307h-170v-1307h-166v1307h-168v166h504v-166z" />
    <glyph glyph-name="U" unicode="U" horiz-adv-x="657" 
d="M613 260q0 -59 -22.5 -111.5t-61 -91.5t-91 -61.5t-111.5 -22.5q-60 0 -112 22.5t-91 61.5t-61.5 91.5t-22.5 111.5v1213h166v-1213q0 -51 35 -86t86 -35q49 0 85 35t36 86v1213h165v-1213z" />
    <glyph glyph-name="V" unicode="V" horiz-adv-x="573" 
d="M573 1473l-213 -1473h-153l-207 1473h190l107 -986l106 986h170z" />
    <glyph glyph-name="W" unicode="W" horiz-adv-x="929" 
d="M930 1473l-195 -1473h-153l-119 918l-121 -918h-154l-188 1473h190l89 -922l124 922h144l125 -922l88 922h170z" />
    <glyph glyph-name="X" unicode="X" horiz-adv-x="712" 
d="M261 737l-219 736h189l129 -492l127 492h180l-219 -713l227 -760h-188l-136 526l-137 -526h-180z" />
    <glyph glyph-name="Y" unicode="Y" horiz-adv-x="657" 
d="M641 1473l-235 -777v-696h-166v688l-240 785h195l131 -525l133 525h182z" />
    <glyph glyph-name="Z" unicode="Z" horiz-adv-x="641" 
d="M605 0h-573v129l377 1165h-377v179h573v-130l-380 -1165h380v-178z" />
    <glyph glyph-name="bracketleft" unicode="[" horiz-adv-x="645" 
 />
    <glyph glyph-name="backslash" unicode="\" horiz-adv-x="589" 
d="M96 1554l490 -1636h-99l-483 1636h92z" />
    <glyph glyph-name="bracketright" unicode="]" horiz-adv-x="645" 
 />
    <glyph glyph-name="asciicircum" unicode="^" horiz-adv-x="1228" 
 />
    <glyph glyph-name="underscore" unicode="_" horiz-adv-x="1024" 
 />
    <glyph glyph-name="grave" unicode="`" horiz-adv-x="532" 
 />
    <glyph glyph-name="a" unicode="a" 
d="M601 0h-110l-37 66q-20 -37 -61 -58.5t-113 -21.5q-47 0 -92 18.5t-81 52t-58.5 83.5t-22.5 114q0 90 22.5 158.5t57.5 122t80 94.5t91 74.5t87 63.5t72 62v58q0 49 -25 85t-74 36q-92 0 -118 -82l-142 96q12 27 36 54.5t57.5 49t75.5 35t91 13.5q58 0 107 -23t84 -61.5
t54 -91t19 -111.5v-887zM436 289v327q-31 -20 -73 -50.5t-80 -71.5t-64.5 -96.5t-26.5 -125.5q0 -51 35 -85.5t86 -34.5q49 0 86 43t37 94z" />
    <glyph glyph-name="b" unicode="b" horiz-adv-x="663" 
d="M626 279q0 -60 -20.5 -112t-56.5 -91t-85 -61.5t-109 -22.5q-65 0 -110 20.5t-62 42.5l-36 -55h-111v1479l166 55v-418q10 23 53 40.5t98 17.5q60 0 110 -23t86 -61.5t56.5 -91t20.5 -111.5v-608zM331 1008q-51 0 -90 -36t-39 -85v-608q0 -52 39 -86.5t90 -34.5
q49 0 89 34.5t40 86.5v608q0 49 -40 85t-89 36z" />
    <glyph glyph-name="c" unicode="c" horiz-adv-x="641" 
d="M323 1008q-51 0 -86 -36t-35 -85v-627q0 -51 35 -86t86 -35q49 0 85 35t36 86v19l165 55v-74q0 -59 -22.5 -111.5t-61 -91.5t-91 -61.5t-111.5 -22.5q-60 0 -112 22.5t-91 61.5t-61.5 91.5t-22.5 111.5v627q0 67 22.5 120.5t61.5 90.5t91 56.5t112 19.5q59 0 111.5 -20.5
t91 -57.5t61 -90.5t22.5 -118.5v-49h-165v49q0 49 -36 85t-85 36z" />
    <glyph glyph-name="d" unicode="d" horiz-adv-x="638" 
d="M593 0h-110l-37 55q-10 -20 -54 -41.5t-108 -21.5q-59 0 -107 22.5t-83 61.5t-54.5 91t-19.5 112v608q0 59 17.5 111.5t49 91t79 61.5t106.5 23t100 -20.5t56 -43.5v369l165 55v-1534zM428 279v608q0 49 -36 85t-85 36q-51 0 -86 -36t-35 -85v-608q0 -52 35 -86.5
t86 -34.5q49 0 85 34.5t36 86.5z" />
    <glyph glyph-name="e" unicode="e" 
d="M597 260q0 -59 -21.5 -111.5t-59.5 -91.5t-89 -61.5t-110 -22.5q-60 0 -111 22.5t-89 61.5t-59.5 91.5t-21.5 111.5v627q0 59 22.5 111.5t61.5 91t91 61.5t112 23q59 0 111.5 -22t91 -61.5t61 -97t22.5 -131.5q0 -108 -20.5 -183t-63.5 -134q-49 -66 -127.5 -118
t-195.5 -112v-55q0 -51 31.5 -86t83.5 -35q49 0 81.5 35t32.5 86v19l166 55v-74zM444 854q0 86 -36 120t-85 34q-51 0 -86 -36t-35 -85v-381q70 35 114 69.5t72 71.5q33 45 44.5 94.5t11.5 112.5z" />
    <glyph glyph-name="f" unicode="f" horiz-adv-x="516" 
d="M382 1534q70 0 134 -29l-66 -157q-27 20 -68 20q-51 0 -85.5 -35t-34.5 -86v-98h120v-145h-120v-1004h-166v1004h-74v145h74v98q0 60 22.5 112t61.5 91t91 61.5t111 22.5z" />
    <glyph glyph-name="g" unicode="g" horiz-adv-x="778" 
d="M677 1010v-451q0 -117 -62.5 -188.5t-203.5 -83.5q-66 -6 -85 -30t-19 -50q0 -17 12 -38.5t41 -25.5h360l-92 -166h-313q-123 0 -123 -67q0 -68 123 -68h266l-90 -166h-176q-125 0 -206 63.5t-81 168.5q0 82 52 141.5t138 81.5q-28 10 -41.5 32.5t-13.5 49.5
q0 29 22.5 55.5t69.5 36.5q-151 80 -151 254v328q0 59 19.5 111.5t54 91t86 61.5t114.5 23q66 0 111 -13.5t65 -25.5h205zM511 559v328q0 51 -35.5 86t-85.5 35q-51 0 -85.5 -35t-34.5 -86v-328q0 -51 34.5 -86t85.5 -35q50 0 85.5 35t35.5 86z" />
    <glyph glyph-name="h" unicode="h" horiz-adv-x="661" 
d="M626 0h-166v887q0 49 -40 85t-89 36q-51 0 -90 -36t-39 -85v-887h-166v1479l166 55v-406q16 19 52 32.5t91 13.5q119 0 200 -76t81 -211v-887z" />
    <glyph glyph-name="i" unicode="i" horiz-adv-x="245" 
d="M208 1432q0 -43 -24.5 -74t-61.5 -31t-61.5 32t-24.5 73q0 38 24.5 70t61.5 32t61.5 -30.5t24.5 -71.5zM202 0h-166v1149h166v-1149z" />
    <glyph glyph-name="j" unicode="j" horiz-adv-x="290" 
d="M248 -55q0 -60 -22.5 -112t-61 -91t-91 -61.5t-111.5 -22.5q-62 0 -117 23l45 165q33 -22 72 -22q49 0 85 36t36 85v1204h165v-1204zM255 1432q0 -43 -25 -74t-61 -31q-37 0 -61.5 32t-24.5 73q0 38 24.5 70t61.5 32q36 0 61 -30.5t25 -71.5z" />
    <glyph glyph-name="k" unicode="k" horiz-adv-x="647" 
d="M641 0h-190l-242 614v-614h-166v1479l166 55v-725l217 340h182l-274 -428z" />
    <glyph glyph-name="l" unicode="l" horiz-adv-x="256" 
d="M209 0h-166v1479l166 55v-1534z" />
    <glyph glyph-name="m" unicode="m" horiz-adv-x="1017" 
d="M975 0h-166v872q0 50 -29.5 85.5t-79.5 35.5q-51 0 -79.5 -35.5t-28.5 -85.5v-872h-166v872q0 50 -29.5 85.5t-79.5 35.5q-51 0 -79.5 -35.5t-28.5 -85.5v-872h-166v1149h111l36 -53q23 32 51.5 47.5t75.5 15.5q64 0 109 -27.5t86 -80.5q27 53 71 80.5t117 27.5
q60 0 110 -22.5t87 -61.5t57.5 -91t20.5 -112v-872z" />
    <glyph glyph-name="n" unicode="n" horiz-adv-x="675" 
d="M635 0h-166v872q0 50 -40 85.5t-89 35.5q-51 0 -91 -35.5t-40 -85.5v-872h-166v1149h111l36 -53q23 32 63 47.5t87 15.5q59 0 112.5 -22.5t94.5 -61.5t64.5 -91t23.5 -112v-872z" />
    <glyph glyph-name="o" unicode="o" horiz-adv-x="649" 
d="M609 260q0 -59 -22.5 -111.5t-61 -91.5t-91 -61.5t-111.5 -22.5q-60 0 -112 22.5t-91 61.5t-61.5 91.5t-22.5 111.5v627q0 59 22.5 111.5t61.5 91t91 61.5t112 23q59 0 111.5 -23t91 -61.5t61 -91t22.5 -111.5v-627zM444 260v627q0 49 -36 85t-85 36q-51 0 -86 -36
t-35 -85v-627q0 -51 35 -86t86 -35q49 0 85 35t36 86z" />
    <glyph glyph-name="p" unicode="p" horiz-adv-x="638" 
d="M616 260q0 -59 -22.5 -111.5t-61 -91.5t-91 -61.5t-111.5 -22.5q-94 0 -121 64v-359h-166v1471h111l36 -53q17 26 61 44.5t79 18.5q59 0 111.5 -22.5t91 -61.5t61 -91t22.5 -112v-612zM451 260v612q0 50 -36 85.5t-85 35.5q-51 0 -86 -35.5t-35 -85.5v-612q0 -51 35 -86
t86 -35q49 0 85 35t36 86z" />
    <glyph glyph-name="q" unicode="q" horiz-adv-x="638" 
d="M593 -322h-165v359q-31 -64 -121 -64q-60 0 -112 22.5t-91 61.5t-61.5 91.5t-22.5 111.5v612q0 60 22.5 112t61.5 91t91 61.5t112 22.5q35 0 78 -18.5t61 -44.5l37 53h110v-1471zM428 260v612q0 50 -36 85.5t-85 35.5q-51 0 -86 -35.5t-35 -85.5v-612q0 -51 35 -86
t86 -35q49 0 85 35t36 86z" />
    <glyph glyph-name="r" unicode="r" horiz-adv-x="436" 
d="M330 1159q35 0 59.5 -9t38.5 -24l-57 -147q-25 14 -41 14q-51 0 -86 -35.5t-35 -85.5v-872h-166v1149h111l36 -72q15 29 49.5 55.5t90.5 26.5z" />
    <glyph glyph-name="s" unicode="s" horiz-adv-x="645" 
d="M614 260q0 -59 -21.5 -111.5t-60.5 -91.5t-93.5 -61.5t-119.5 -22.5q-70 0 -123 22.5t-90 61.5t-56.5 91.5t-19.5 111.5v80l166 -37v-43q0 -51 36 -86t87 -35q49 0 89 35t40 86q0 66 -35 113t-84 87t-102.5 77.5t-90.5 85.5q-47 59 -68.5 123.5t-21.5 140.5
q0 59 19.5 111.5t56.5 91t89 61.5t118 23q68 0 118 -23t84 -61.5t50 -91t16 -111.5v-80l-161 37v43q0 51 -32 86t-81 35q-51 0 -81 -35t-30 -86q0 -70 32 -117t78 -85t97 -74t92 -81q49 -55 75 -119.5t28 -150.5z" />
    <glyph glyph-name="t" unicode="t" horiz-adv-x="575" 
d="M374 137q25 0 45.5 11.5t30.5 27.5l113 -123q-31 -37 -81 -58.5t-102 -21.5q-122 0 -190 80t-68 205v746h-104v145h104v209l166 55v-264h219v-145h-219v-746q0 -121 86 -121z" />
    <glyph glyph-name="u" unicode="u" horiz-adv-x="651" 
d="M605 0h-110l-37 55q-17 -22 -51.5 -42.5t-100.5 -20.5q-53 0 -101 19.5t-85 56t-58.5 90t-21.5 121.5v870h166v-870q0 -52 32.5 -86.5t84.5 -34.5q49 0 82.5 34.5t33.5 86.5v870h166v-1149z" />
    <glyph glyph-name="v" unicode="v" horiz-adv-x="573" 
d="M573 1149l-213 -1149h-153l-207 1149h188l107 -721l106 721h172z" />
    <glyph glyph-name="w" unicode="w" horiz-adv-x="929" 
d="M930 1149l-203 -1149h-154l-110 684l-113 -684h-153l-197 1149h184l88 -725l125 725h144l125 -725l88 725h176z" />
    <glyph glyph-name="x" unicode="x" horiz-adv-x="710" 
d="M675 0h-190l-138 397l-135 -397h-178l233 600l-221 549h189l125 -338l127 338h176l-221 -561z" />
    <glyph glyph-name="y" unicode="y" horiz-adv-x="641" 
d="M595 -322h-165v377q-11 -22 -51 -42.5t-93 -20.5q-51 0 -98 19.5t-84 56t-59.5 90t-22.5 121.5v870h166v-870q0 -52 35 -86.5t86 -34.5q49 0 85 34.5t36 86.5v870h165v-1471z" />
    <glyph glyph-name="z" unicode="z" horiz-adv-x="616" 
d="M572 0h-532v129l348 844h-348v176h532v-129l-348 -844h348v-176z" />
    <glyph glyph-name="braceleft" unicode="{" horiz-adv-x="645" 
 />
    <glyph glyph-name="bar" unicode="|" horiz-adv-x="454" 
 />
    <glyph glyph-name="braceright" unicode="}" horiz-adv-x="645" 
 />
    <glyph glyph-name="asciitilde" unicode="~" horiz-adv-x="1228" 
 />
    <glyph glyph-name="dieresis" unicode="&#xa8;" horiz-adv-x="1024" 
 />
    <glyph glyph-name="copyright" unicode="&#xa9;" horiz-adv-x="922" 
 />
    <glyph glyph-name="registered" unicode="&#xae;" horiz-adv-x="922" 
 />
    <glyph glyph-name="acute" unicode="&#xb4;" horiz-adv-x="1280" 
 />
    <glyph glyph-name="paragraph" unicode="&#xb6;" horiz-adv-x="1024" 
 />
    <glyph glyph-name="onequarter" unicode="&#xbc;" horiz-adv-x="1303" 
 />
    <glyph glyph-name="onehalf" unicode="&#xbd;" horiz-adv-x="1303" 
 />
    <glyph glyph-name="threequarters" unicode="&#xbe;" horiz-adv-x="1303" 
 />
    <glyph glyph-name="Agrave" unicode="&#xc0;" horiz-adv-x="641" 
d="M620 0h-168l-22 182h-211l-23 -182h-176l227 1473h150zM409 338l-84 645l-86 -645h170zM188 1661h104l85 -149h-59z" />
    <glyph glyph-name="Aacute" unicode="&#xc1;" horiz-adv-x="641" 
d="M620 0h-168l-22 182h-211l-23 -182h-176l227 1473h150zM409 338l-84 645l-86 -645h170zM333 1512h-58l84 149h105z" />
    <glyph glyph-name="Acircumflex" unicode="&#xc2;" horiz-adv-x="641" 
d="M620 0h-168l-22 182h-211l-23 -182h-176l227 1473h150zM409 338l-84 645l-86 -645h170zM317 1563l-69 -58h-87l114 135h83l116 -135h-88z" />
    <glyph glyph-name="Atilde" unicode="&#xc3;" horiz-adv-x="641" 
d="M620 0h-168l-22 182h-211l-23 -182h-176l227 1473h150zM409 338l-84 645l-86 -645h170zM491 1591q-25 -65 -100 -65q-19 0 -33 6t-28 13.5t-27.5 14t-28.5 6.5q-16 0 -32.5 -10.5t-32.5 -36.5l-48 41q21 38 46 54.5t56 16.5q25 0 40.5 -5.5t28.5 -13t25 -13t30 -5.5
q40 0 61 46z" />
    <glyph glyph-name="Egrave" unicode="&#xc8;" horiz-adv-x="555" 
d="M530 0h-487v1473h487v-166h-321v-467h186v-166h-186v-508h321v-166zM148 1661h104l85 -149h-59z" />
    <glyph glyph-name="Eacute" unicode="&#xc9;" horiz-adv-x="555" 
d="M530 0h-487v1473h487v-166h-321v-467h186v-166h-186v-508h321v-166zM281 1512h-58l84 149h105z" />
    <glyph glyph-name="Ecircumflex" unicode="&#xca;" horiz-adv-x="555" 
d="M530 0h-487v1473h487v-166h-321v-467h186v-166h-186v-508h321v-166zM286 1563l-69 -58h-87l114 135h83l116 -135h-88z" />
    <glyph glyph-name="Igrave" unicode="&#xcc;" horiz-adv-x="256" 
d="M209 0h-166v1473h166v-1473zM-21 1661h104l85 -149h-59z" />
    <glyph glyph-name="Iacute" unicode="&#xcd;" horiz-adv-x="256" 
d="M209 0h-166v1473h166v-1473zM138 1512h-58l84 149h105z" />
    <glyph glyph-name="Dslash" unicode="&#xd0;" horiz-adv-x="657" 
d="M616 287q0 -60 -22.5 -112t-61 -91t-91 -61.5t-111.5 -22.5h-287v1473h287q59 0 111.5 -23t91 -61.5t61 -91t22.5 -111.5v-899zM209 823v-657h121q49 0 85 35t36 86v899q0 51 -36 86t-85 35h-121v-338h165v-146h-165z" />
    <glyph glyph-name="Dslash" unicode="&#x110;" horiz-adv-x="657" 
d="M616 287q0 -60 -22.5 -112t-61 -91t-91 -61.5t-111.5 -22.5h-287v1473h287q59 0 111.5 -23t91 -61.5t61 -91t22.5 -111.5v-899zM209 823v-657h121q49 0 85 35t36 86v899q0 51 -36 86t-85 35h-121v-338h165v-146h-165z" />
    <glyph glyph-name="Ograve" unicode="&#xd2;" horiz-adv-x="653" 
d="M611 260q0 -59 -22.5 -111.5t-61 -91.5t-91 -61.5t-111.5 -22.5q-60 0 -112 22.5t-91 61.5t-61.5 91.5t-22.5 111.5v950q0 60 22.5 112t61.5 91t91 61.5t112 22.5q59 0 111.5 -22.5t91 -61.5t61 -91t22.5 -112v-950zM446 260v950q0 52 -36 86.5t-85 34.5q-51 0 -86 -34.5
t-35 -86.5v-950q0 -51 35 -86t86 -35q49 0 85 35t36 86zM183 1681h104l85 -149h-59z" />
    <glyph glyph-name="Oacute" unicode="&#xd3;" horiz-adv-x="653" 
d="M611 260q0 -59 -22.5 -111.5t-61 -91.5t-91 -61.5t-111.5 -22.5q-60 0 -112 22.5t-91 61.5t-61.5 91.5t-22.5 111.5v950q0 60 22.5 112t61.5 91t91 61.5t112 22.5q59 0 111.5 -22.5t91 -61.5t61 -91t22.5 -112v-950zM446 260v950q0 52 -36 86.5t-85 34.5q-51 0 -86 -34.5
t-35 -86.5v-950q0 -51 35 -86t86 -35q49 0 85 35t36 86zM314 1532h-59l85 149h104z" />
    <glyph glyph-name="Ocircumflex" unicode="&#xd4;" horiz-adv-x="653" 
d="M611 260q0 -59 -22.5 -111.5t-61 -91.5t-91 -61.5t-111.5 -22.5q-60 0 -112 22.5t-91 61.5t-61.5 91.5t-22.5 111.5v950q0 60 22.5 112t61.5 91t91 61.5t112 22.5q59 0 111.5 -22.5t91 -61.5t61 -91t22.5 -112v-950zM446 260v950q0 52 -36 86.5t-85 34.5q-51 0 -86 -34.5
t-35 -86.5v-950q0 -51 35 -86t86 -35q49 0 85 35t36 86zM324 1578l-69 -58h-87l114 135h83l116 -135h-88z" />
    <glyph glyph-name="Otilde" unicode="&#xd5;" horiz-adv-x="653" 
d="M611 260q0 -59 -22.5 -111.5t-61 -91.5t-91 -61.5t-111.5 -22.5q-60 0 -112 22.5t-91 61.5t-61.5 91.5t-22.5 111.5v950q0 60 22.5 112t61.5 91t91 61.5t112 22.5q59 0 111.5 -22.5t91 -61.5t61 -91t22.5 -112v-950zM446 260v950q0 52 -36 86.5t-85 34.5q-51 0 -86 -34.5
t-35 -86.5v-950q0 -51 35 -86t86 -35q49 0 85 35t36 86zM491 1601q-25 -65 -100 -65q-19 0 -33 6t-28 13.5t-27.5 14t-28.5 6.5q-16 0 -32.5 -10.5t-32.5 -36.5l-48 41q21 38 46 54.5t56 16.5q25 0 40.5 -5.5t28.5 -13t25 -13t30 -5.5q40 0 61 46z" />
    <glyph glyph-name="Ugrave" unicode="&#xd9;" horiz-adv-x="657" 
d="M613 260q0 -59 -22.5 -111.5t-61 -91.5t-91 -61.5t-111.5 -22.5q-60 0 -112 22.5t-91 61.5t-61.5 91.5t-22.5 111.5v1213h166v-1213q0 -51 35 -86t86 -35q49 0 85 35t36 86v1213h165v-1213zM183 1681h104l85 -149h-59z" />
    <glyph glyph-name="Uacute" unicode="&#xda;" horiz-adv-x="657" 
d="M613 260q0 -59 -22.5 -111.5t-61 -91.5t-91 -61.5t-111.5 -22.5q-60 0 -112 22.5t-91 61.5t-61.5 91.5t-22.5 111.5v1213h166v-1213q0 -51 35 -86t86 -35q49 0 85 35t36 86v1213h165v-1213zM329 1532h-59l85 149h104z" />
    <glyph glyph-name="Yacute" unicode="&#xdd;" horiz-adv-x="657" 
d="M641 1473l-235 -777v-696h-166v688l-240 785h195l131 -525l133 525h182zM329 1532h-59l85 149h104z" />
    <glyph glyph-name="agrave" unicode="&#xe0;" 
d="M601 0h-110l-37 66q-20 -37 -61 -58.5t-113 -21.5q-47 0 -92 18.5t-81 52t-58.5 83.5t-22.5 114q0 90 22.5 158.5t57.5 122t80 94.5t91 74.5t87 63.5t72 62v58q0 49 -25 85t-74 36q-92 0 -118 -82l-142 96q12 27 36 54.5t57.5 49t75.5 35t91 13.5q58 0 107 -23t84 -61.5
t54 -91t19 -111.5v-887zM436 289v327q-31 -20 -73 -50.5t-80 -71.5t-64.5 -96.5t-26.5 -125.5q0 -51 35 -85.5t86 -34.5q49 0 86 43t37 94zM204 1364h104l85 -149h-59z" />
    <glyph glyph-name="aacute" unicode="&#xe1;" 
d="M601 0h-110l-37 66q-20 -37 -61 -58.5t-113 -21.5q-47 0 -92 18.5t-81 52t-58.5 83.5t-22.5 114q0 90 22.5 158.5t57.5 122t80 94.5t91 74.5t87 63.5t72 62v58q0 49 -25 85t-74 36q-92 0 -118 -82l-142 96q12 27 36 54.5t57.5 49t75.5 35t91 13.5q58 0 107 -23t84 -61.5
t54 -91t19 -111.5v-887zM436 289v327q-31 -20 -73 -50.5t-80 -71.5t-64.5 -96.5t-26.5 -125.5q0 -51 35 -85.5t86 -34.5q49 0 86 43t37 94zM314 1215h-59l85 149h104z" />
    <glyph glyph-name="acircumflex" unicode="&#xe2;" 
d="M601 0h-110l-37 66q-20 -37 -61 -58.5t-113 -21.5q-47 0 -92 18.5t-81 52t-58.5 83.5t-22.5 114q0 90 22.5 158.5t57.5 122t80 94.5t91 74.5t87 63.5t72 62v58q0 49 -25 85t-74 36q-92 0 -118 -82l-142 96q12 27 36 54.5t57.5 49t75.5 35t91 13.5q58 0 107 -23t84 -61.5
t54 -91t19 -111.5v-887zM436 289v327q-31 -20 -73 -50.5t-80 -71.5t-64.5 -96.5t-26.5 -125.5q0 -51 35 -85.5t86 -34.5q49 0 86 43t37 94zM324 1276l-69 -58h-87l114 135h83l116 -135h-88z" />
    <glyph glyph-name="atilde" unicode="&#xe3;" 
d="M601 0h-110l-37 66q-20 -37 -61 -58.5t-113 -21.5q-47 0 -92 18.5t-81 52t-58.5 83.5t-22.5 114q0 90 22.5 158.5t57.5 122t80 94.5t91 74.5t87 63.5t72 62v58q0 49 -25 85t-74 36q-92 0 -118 -82l-142 96q12 27 36 54.5t57.5 49t75.5 35t91 13.5q58 0 107 -23t84 -61.5
t54 -91t19 -111.5v-887zM436 289v327q-31 -20 -73 -50.5t-80 -71.5t-64.5 -96.5t-26.5 -125.5q0 -51 35 -85.5t86 -34.5q49 0 86 43t37 94zM497 1278q-25 -65 -100 -65q-19 0 -33 6t-28 13.5t-27.5 14t-28.5 6.5q-16 0 -32.5 -10.5t-32.5 -36.5l-48 41q21 38 46 54.5
t56 16.5q25 0 40.5 -5.5t28.5 -13t25 -13t30 -5.5q40 0 61 46z" />
    <glyph glyph-name="egrave" unicode="&#xe8;" 
d="M597 260q0 -59 -21.5 -111.5t-59.5 -91.5t-89 -61.5t-110 -22.5q-60 0 -111 22.5t-89 61.5t-59.5 91.5t-21.5 111.5v627q0 59 22.5 111.5t61.5 91t91 61.5t112 23q59 0 111.5 -22t91 -61.5t61 -97t22.5 -131.5q0 -108 -20.5 -183t-63.5 -134q-49 -66 -127.5 -118
t-195.5 -112v-55q0 -51 31.5 -86t83.5 -35q49 0 81.5 35t32.5 86v19l166 55v-74zM444 854q0 86 -36 120t-85 34q-51 0 -86 -36t-35 -85v-381q70 35 114 69.5t72 71.5q33 45 44.5 94.5t11.5 112.5zM204 1364h104l85 -149h-59z" />
    <glyph glyph-name="eacute" unicode="&#xe9;" 
d="M597 260q0 -59 -21.5 -111.5t-59.5 -91.5t-89 -61.5t-110 -22.5q-60 0 -111 22.5t-89 61.5t-59.5 91.5t-21.5 111.5v627q0 59 22.5 111.5t61.5 91t91 61.5t112 23q59 0 111.5 -22t91 -61.5t61 -97t22.5 -131.5q0 -108 -20.5 -183t-63.5 -134q-49 -66 -127.5 -118
t-195.5 -112v-55q0 -51 31.5 -86t83.5 -35q49 0 81.5 35t32.5 86v19l166 55v-74zM444 854q0 86 -36 120t-85 34q-51 0 -86 -36t-35 -85v-381q70 35 114 69.5t72 71.5q33 45 44.5 94.5t11.5 112.5zM314 1215h-59l85 149h104z" />
    <glyph glyph-name="ecircumflex" unicode="&#xea;" 
d="M597 260q0 -59 -21.5 -111.5t-59.5 -91.5t-89 -61.5t-110 -22.5q-60 0 -111 22.5t-89 61.5t-59.5 91.5t-21.5 111.5v627q0 59 22.5 111.5t61.5 91t91 61.5t112 23q59 0 111.5 -22t91 -61.5t61 -97t22.5 -131.5q0 -108 -20.5 -183t-63.5 -134q-49 -66 -127.5 -118
t-195.5 -112v-55q0 -51 31.5 -86t83.5 -35q49 0 81.5 35t32.5 86v19l166 55v-74zM444 854q0 86 -36 120t-85 34q-51 0 -86 -36t-35 -85v-381q70 35 114 69.5t72 71.5q33 45 44.5 94.5t11.5 112.5zM324 1276l-69 -58h-87l114 135h83l116 -135h-88z" />
    <glyph glyph-name="igrave" unicode="&#xec;" horiz-adv-x="245" 
d="M202 0h-166v1149h166v-1149zM-16 1364h104l85 -149h-59z" />
    <glyph glyph-name="iacute" unicode="&#xed;" horiz-adv-x="245" 
d="M202 0h-166v1149h166v-1149zM119 1215h-59l85 149h104z" />
    <glyph glyph-name="ograve" unicode="&#xf2;" horiz-adv-x="649" 
d="M609 260q0 -59 -22.5 -111.5t-61 -91.5t-91 -61.5t-111.5 -22.5q-60 0 -112 22.5t-91 61.5t-61.5 91.5t-22.5 111.5v627q0 59 22.5 111.5t61.5 91t91 61.5t112 23q59 0 111.5 -23t91 -61.5t61 -91t22.5 -111.5v-627zM444 260v627q0 49 -36 85t-85 36q-51 0 -86 -36
t-35 -85v-627q0 -51 35 -86t86 -35q49 0 85 35t36 86zM184 1364h104l85 -149h-59z" />
    <glyph glyph-name="oacute" unicode="&#xf3;" horiz-adv-x="649" 
d="M609 260q0 -59 -22.5 -111.5t-61 -91.5t-91 -61.5t-111.5 -22.5q-60 0 -112 22.5t-91 61.5t-61.5 91.5t-22.5 111.5v627q0 59 22.5 111.5t61.5 91t91 61.5t112 23q59 0 111.5 -23t91 -61.5t61 -91t22.5 -111.5v-627zM444 260v627q0 49 -36 85t-85 36q-51 0 -86 -36
t-35 -85v-627q0 -51 35 -86t86 -35q49 0 85 35t36 86zM303 1215h-59l85 149h104z" />
    <glyph glyph-name="ocircumflex" unicode="&#xf4;" horiz-adv-x="649" 
d="M609 260q0 -59 -22.5 -111.5t-61 -91.5t-91 -61.5t-111.5 -22.5q-60 0 -112 22.5t-91 61.5t-61.5 91.5t-22.5 111.5v627q0 59 22.5 111.5t61.5 91t91 61.5t112 23q59 0 111.5 -23t91 -61.5t61 -91t22.5 -111.5v-627zM444 260v627q0 49 -36 85t-85 36q-51 0 -86 -36
t-35 -85v-627q0 -51 35 -86t86 -35q49 0 85 35t36 86zM322 1276l-69 -58h-87l114 135h83l116 -135h-88z" />
    <glyph glyph-name="otilde" unicode="&#xf5;" horiz-adv-x="649" 
d="M609 260q0 -59 -22.5 -111.5t-61 -91.5t-91 -61.5t-111.5 -22.5q-60 0 -112 22.5t-91 61.5t-61.5 91.5t-22.5 111.5v627q0 59 22.5 111.5t61.5 91t91 61.5t112 23q59 0 111.5 -23t91 -61.5t61 -91t22.5 -111.5v-627zM444 260v627q0 49 -36 85t-85 36q-51 0 -86 -36
t-35 -85v-627q0 -51 35 -86t86 -35q49 0 85 35t36 86zM481 1278q-25 -65 -100 -65q-19 0 -33 6t-28 13.5t-27.5 14t-28.5 6.5q-16 0 -32.5 -10.5t-32.5 -36.5l-48 41q21 38 46 54.5t56 16.5q25 0 40.5 -5.5t28.5 -13t25 -13t30 -5.5q40 0 61 46z" />
    <glyph glyph-name="divide" unicode="&#xf7;" horiz-adv-x="1706" 
 />
    <glyph glyph-name="glyph217" unicode="&#xf9;" horiz-adv-x="651" 
d="M605 0h-110l-37 55q-17 -22 -51.5 -42.5t-100.5 -20.5q-53 0 -101 19.5t-85 56t-58.5 90t-21.5 121.5v870h166v-870q0 -52 32.5 -86.5t84.5 -34.5q49 0 82.5 34.5t33.5 86.5v870h166v-1149zM184 1364h104l85 -149h-59z" />
    <glyph glyph-name="glyph218" unicode="&#xfa;" horiz-adv-x="651" 
d="M605 0h-110l-37 55q-17 -22 -51.5 -42.5t-100.5 -20.5q-53 0 -101 19.5t-85 56t-58.5 90t-21.5 121.5v870h166v-870q0 -52 32.5 -86.5t84.5 -34.5q49 0 82.5 34.5t33.5 86.5v870h166v-1149zM303 1215h-59l85 149h104z" />
    <glyph glyph-name="glyph235" unicode="&#xfd;" horiz-adv-x="641" 
d="M595 -322h-165v377q-11 -22 -51 -42.5t-93 -20.5q-51 0 -98 19.5t-84 56t-59.5 90t-22.5 121.5v870h166v-870q0 -52 35 -86.5t86 -34.5q49 0 85 34.5t36 86.5v870h165v-1471zM303 1215h-59l85 149h104z" />
    <glyph glyph-name="Abreve" unicode="&#x102;" horiz-adv-x="641" 
d="M620 0h-168l-22 182h-211l-23 -182h-176l227 1473h150zM409 338l-84 645l-86 -645h170zM247 1646q5 -17 19 -31q22 -22 54 -22t54 22q14 14 19 31h77q-7 -48 -43 -84q-45 -45 -107 -45t-107 45q-36 36 -43 84h77z" />
    <glyph glyph-name="abreve" unicode="&#x103;" 
d="M601 0h-110l-37 66q-20 -37 -61 -58.5t-113 -21.5q-47 0 -92 18.5t-81 52t-58.5 83.5t-22.5 114q0 90 22.5 158.5t57.5 122t80 94.5t91 74.5t87 63.5t72 62v58q0 49 -25 85t-74 36q-92 0 -118 -82l-142 96q12 27 36 54.5t57.5 49t75.5 35t91 13.5q58 0 107 -23t84 -61.5
t54 -91t19 -111.5v-887zM436 289v327q-31 -20 -73 -50.5t-80 -71.5t-64.5 -96.5t-26.5 -125.5q0 -51 35 -85.5t86 -34.5q49 0 86 43t37 94zM247 1338q5 -17 19 -31q22 -22 54 -22t54 22q14 14 19 31h77q-7 -48 -43 -84q-45 -45 -107 -45t-107 45q-36 36 -43 84h77z" />
    <glyph glyph-name="Ccaron" unicode="&#x10c;" horiz-adv-x="1274" 
 />
    <glyph glyph-name="ccaron" unicode="&#x10d;" horiz-adv-x="922" 
 />
    <glyph glyph-name="dcroat" unicode="&#x111;" horiz-adv-x="638" 
d="M428 279v608q0 49 -36 85t-85 36q-51 0 -86 -36t-35 -85v-608q0 -52 35 -86.5t86 -34.5q49 0 85 34.5t36 86.5zM593 0h-110l-37 55q-10 -20 -54 -41.5t-108 -21.5q-59 0 -107 22.5t-83 61.5t-54.5 91t-19.5 112v608q0 59 17.5 111.5t49 91t79 61.5t106.5 23t100 -20.5
t56 -43.5v123h-166v146h166v100l165 55v-1534z" />
    <glyph glyph-name="Itilde" unicode="&#x128;" horiz-adv-x="256" 
d="M209 0h-166v1473h166v-1473zM297 1591q-25 -65 -100 -65q-19 0 -33 6t-28 13.5t-27.5 14t-28.5 6.5q-16 0 -32.5 -10.5t-32.5 -36.5l-48 41q21 38 46 54.5t56 16.5q25 0 40.5 -5.5t28.5 -13t25 -13t30 -5.5q40 0 61 46z" />
    <glyph glyph-name="itilde" unicode="&#x129;" horiz-adv-x="245" 
d="M202 0h-166v1149h166v-1149zM272 1278q-25 -65 -100 -65q-19 0 -33 6t-28 13.5t-27.5 14t-28.5 6.5q-16 0 -32.5 -10.5t-32.5 -36.5l-48 41q21 38 46 54.5t56 16.5q25 0 40.5 -5.5t28.5 -13t25 -13t30 -5.5q40 0 61 46z" />
    <glyph glyph-name="Utilde" unicode="&#x168;" horiz-adv-x="657" 
d="M613 260q0 -59 -22.5 -111.5t-61 -91.5t-91 -61.5t-111.5 -22.5q-60 0 -112 22.5t-91 61.5t-61.5 91.5t-22.5 111.5v1213h166v-1213q0 -51 35 -86t86 -35q49 0 85 35t36 86v1213h165v-1213zM491 1601q-25 -65 -100 -65q-19 0 -33 6t-28 13.5t-27.5 14t-28.5 6.5
q-16 0 -32.5 -10.5t-32.5 -36.5l-48 41q21 38 46 54.5t56 16.5q25 0 40.5 -5.5t28.5 -13t25 -13t30 -5.5q40 0 61 46z" />
    <glyph glyph-name="utilde" unicode="&#x169;" horiz-adv-x="651" 
d="M605 0h-110l-37 55q-17 -22 -51.5 -42.5t-100.5 -20.5q-53 0 -101 19.5t-85 56t-58.5 90t-21.5 121.5v870h166v-870q0 -52 32.5 -86.5t84.5 -34.5q49 0 82.5 34.5t33.5 86.5v870h166v-1149zM481 1278q-25 -65 -100 -65q-19 0 -33 6t-28 13.5t-27.5 14t-28.5 6.5
q-16 0 -32.5 -10.5t-32.5 -36.5l-48 41q21 38 46 54.5t56 16.5q25 0 40.5 -5.5t28.5 -13t25 -13t30 -5.5q40 0 61 46z" />
    <glyph glyph-name="Ohorn" unicode="&#x1a0;" horiz-adv-x="653" 
d="M446 260v950q0 52 -36 86.5t-85 34.5q-51 0 -86 -34.5t-35 -86.5v-950q0 -51 35 -86t86 -35q49 0 85 35t36 86zM598 1297q13 -41 13 -87v-950q0 -59 -22.5 -111.5t-61 -91.5t-91 -61.5t-111.5 -22.5q-60 0 -112 22.5t-91 61.5t-61.5 91.5t-22.5 111.5v950q0 60 22.5 112
t61.5 91t91 61.5t112 22.5q59 0 112 -22q39 -17 71 -44l7 87h147z" />
    <glyph glyph-name="ohorn" unicode="&#x1a1;" horiz-adv-x="649" 
d="M444 260v627q0 49 -36 85t-85 36q-51 0 -86 -36t-35 -85v-627q0 -51 35 -86t86 -35q49 0 85 35t36 86zM589 993q20 -50 20 -106v-627q0 -59 -22.5 -111.5t-61 -91.5t-91 -61.5t-111.5 -22.5q-60 0 -112 22.5t-91 61.5t-61.5 91.5t-22.5 111.5v627q0 59 22.5 111.5
t61.5 91t91 61.5t112 23q59 0 112 -23q34 -15 62 -36l8 96h147z" />
    <glyph glyph-name="Uhorn" unicode="&#x1af;" horiz-adv-x="657" 
d="M613 1243v-983q0 -59 -22.5 -111.5t-61 -91.5t-91 -61.5t-111.5 -22.5q-60 0 -112 22.5t-91 61.5t-61.5 91.5t-22.5 111.5v1213h166v-1213q0 -51 35 -86t86 -35q49 0 85 35t36 86v1213h94l4 45h147z" />
    <glyph glyph-name="uhorn" unicode="&#x1b0;" horiz-adv-x="651" 
d="M605 908v-908h-110l-37 55q-17 -22 -51.5 -42.5t-100.5 -20.5q-53 0 -101 19.5t-85 56t-58.5 90t-21.5 121.5v870h166v-870q0 -52 32.5 -86.5t84.5 -34.5q49 0 82.5 34.5t33.5 86.5v870h102l5 62h147z" />
    <glyph glyph-name="uni1EA0" unicode="&#x1ea0;" horiz-adv-x="641" 
d="M620 0h-168l-22 182h-211l-23 -182h-176l227 1473h150zM409 338l-84 645l-86 -645h170zM320 -190q-29 0 -51 22t-22 52q0 32 22 53t51 21q32 0 52.5 -21t20.5 -53q0 -30 -20.5 -52t-52.5 -22z" />
    <glyph glyph-name="uni1EA1" unicode="&#x1ea1;" 
d="M601 0h-110l-37 66q-20 -37 -61 -58.5t-113 -21.5q-47 0 -92 18.5t-81 52t-58.5 83.5t-22.5 114q0 90 22.5 158.5t57.5 122t80 94.5t91 74.5t87 63.5t72 62v58q0 49 -25 85t-74 36q-92 0 -118 -82l-142 96q12 27 36 54.5t57.5 49t75.5 35t91 13.5q58 0 107 -23t84 -61.5
t54 -91t19 -111.5v-887zM436 289v327q-31 -20 -73 -50.5t-80 -71.5t-64.5 -96.5t-26.5 -125.5q0 -51 35 -85.5t86 -34.5q49 0 86 43t37 94zM327 -205q-29 0 -51 22t-22 52q0 32 22 53t51 21q32 0 52.5 -21t20.5 -53q0 -30 -20.5 -52t-52.5 -22z" />
    <glyph glyph-name="uni1EA2" unicode="&#x1ea2;" horiz-adv-x="641" 
d="M620 0h-168l-22 182h-211l-23 -182h-176l227 1473h150zM409 338l-84 645l-86 -645h170zM292 1513v8q0 19 4 35.5t10 30.5t13.5 26.5t16.5 25.5q15 23 15 45q0 8 -6 14t-15 6q-8 0 -19 -10l-11 -11l-1 -10h-51v11q0 16 5.5 31t16.5 26t26 17.5t34 6.5t34.5 -6.5t26.5 -18
t16.5 -26t5.5 -30.5t-4 -30.5t-11.5 -28t-15.5 -26t-17 -26.5q-10 -15 -17 -38q-3 -10 -5 -22h-51z" />
    <glyph glyph-name="uni1EA3" unicode="&#x1ea3;" 
d="M601 0h-110l-37 66q-20 -37 -61 -58.5t-113 -21.5q-47 0 -92 18.5t-81 52t-58.5 83.5t-22.5 114q0 90 22.5 158.5t57.5 122t80 94.5t91 74.5t87 63.5t72 62v58q0 49 -25 85t-74 36q-92 0 -118 -82l-142 96q12 27 36 54.5t57.5 49t75.5 35t91 13.5q58 0 107 -23t84 -61.5
t54 -91t19 -111.5v-887zM436 289v327q-31 -20 -73 -50.5t-80 -71.5t-64.5 -96.5t-26.5 -125.5q0 -51 35 -85.5t86 -34.5q49 0 86 43t37 94zM297 1216v8q0 19 4 35.5t10 30.5t13.5 26.5t16.5 25.5q15 23 15 45q0 8 -6 14t-15 6q-8 0 -19 -10l-11 -11l-1 -10h-51v11
q0 16 5.5 31t16.5 26t26 17.5t34 6.5t34.5 -6.5t26.5 -18t16.5 -26t5.5 -30.5t-4 -30.5t-11.5 -28t-15.5 -26t-17 -26.5q-10 -15 -17 -38q-3 -10 -5 -22h-51z" />
    <glyph glyph-name="uni1EA4" unicode="&#x1ea4;" horiz-adv-x="641" 
d="M620 0h-168l-22 182h-211l-23 -182h-176l227 1473h150zM409 338l-84 645l-86 -645h170zM483 1593h-58l84 149h105zM317 1563l-69 -58h-87l114 135h83l116 -135h-88z" />
    <glyph glyph-name="uni1EA5" unicode="&#x1ea5;" 
d="M601 0h-110l-37 66q-20 -37 -61 -58.5t-113 -21.5q-47 0 -92 18.5t-81 52t-58.5 83.5t-22.5 114q0 90 22.5 158.5t57.5 122t80 94.5t91 74.5t87 63.5t72 62v58q0 49 -25 85t-74 36q-92 0 -118 -82l-142 96q12 27 36 54.5t57.5 49t75.5 35t91 13.5q58 0 107 -23t84 -61.5
t54 -91t19 -111.5v-887zM436 289v327q-31 -20 -73 -50.5t-80 -71.5t-64.5 -96.5t-26.5 -125.5q0 -51 35 -85.5t86 -34.5q49 0 86 43t37 94zM499 1307h-59l85 149h104zM324 1276l-69 -58h-87l114 135h83l116 -135h-88z" />
    <glyph glyph-name="uni1EA6" unicode="&#x1ea6;" horiz-adv-x="641" 
d="M620 0h-168l-22 182h-211l-23 -182h-176l227 1473h150zM409 338l-84 645l-86 -645h170zM331 1738h104l85 -149h-59zM317 1563l-69 -58h-87l114 135h83l116 -135h-88z" />
    <glyph glyph-name="uni1EA7" unicode="&#x1ea7;" 
d="M601 0h-110l-37 66q-20 -37 -61 -58.5t-113 -21.5q-47 0 -92 18.5t-81 52t-58.5 83.5t-22.5 114q0 90 22.5 158.5t57.5 122t80 94.5t91 74.5t87 63.5t72 62v58q0 49 -25 85t-74 36q-92 0 -118 -82l-142 96q12 27 36 54.5t57.5 49t75.5 35t91 13.5q58 0 107 -23t84 -61.5
t54 -91t19 -111.5v-887zM436 289v327q-31 -20 -73 -50.5t-80 -71.5t-64.5 -96.5t-26.5 -125.5q0 -51 35 -85.5t86 -34.5q49 0 86 43t37 94zM337 1451h104l85 -149h-59zM324 1276l-69 -58h-87l114 135h83l116 -135h-88z" />
    <glyph glyph-name="uni1EA8" unicode="&#x1ea8;" horiz-adv-x="641" 
d="M620 0h-168l-22 182h-211l-23 -182h-176l227 1473h150zM409 338l-84 645l-86 -645h170zM450 1575v8q0 19 4 35.5t10 30.5t13.5 26.5t16.5 25.5q15 23 15 45q0 8 -6 14t-15 6q-8 0 -19 -10l-11 -11l-1 -10h-51v11q0 16 5.5 31t16.5 26t26 17.5t34 6.5t34.5 -6.5t26.5 -18
t16.5 -26t5.5 -30.5t-4 -30.5t-11.5 -28t-15.5 -26t-17 -26.5q-10 -15 -17 -38q-3 -10 -5 -22h-51zM317 1563l-69 -58h-87l114 135h83l116 -135h-88z" />
    <glyph glyph-name="uni1EA9" unicode="&#x1ea9;" 
d="M601 0h-110l-37 66q-20 -37 -61 -58.5t-113 -21.5q-47 0 -92 18.5t-81 52t-58.5 83.5t-22.5 114q0 90 22.5 158.5t57.5 122t80 94.5t91 74.5t87 63.5t72 62v58q0 49 -25 85t-74 36q-92 0 -118 -82l-142 96q12 27 36 54.5t57.5 49t75.5 35t91 13.5q58 0 107 -23t84 -61.5
t54 -91t19 -111.5v-887zM436 289v327q-31 -20 -73 -50.5t-80 -71.5t-64.5 -96.5t-26.5 -125.5q0 -51 35 -85.5t86 -34.5q49 0 86 43t37 94zM451 1288v8q0 19 4 35.5t10 30.5t13.5 26.5t16.5 25.5q15 23 15 45q0 8 -6 14t-15 6q-8 0 -19 -10l-11 -11l-1 -10h-51v11
q0 16 5.5 31t16.5 26t26 17.5t34 6.5t34.5 -6.5t26.5 -18t16.5 -26t5.5 -30.5t-4 -30.5t-11.5 -28t-15.5 -26t-17 -26.5q-10 -15 -17 -38q-3 -10 -5 -22h-51zM324 1276l-69 -58h-87l114 135h83l116 -135h-88z" />
    <glyph glyph-name="uni1EAA" unicode="&#x1eaa;" horiz-adv-x="641" 
d="M620 0h-168l-22 182h-211l-23 -182h-176l227 1473h150zM409 338l-84 645l-86 -645h170zM522 1714q-25 -65 -100 -65q-19 0 -33 6t-28 13.5t-27.5 14t-28.5 6.5q-16 0 -32.5 -10.5t-32.5 -36.5l-48 41q21 38 46 54.5t56 16.5q25 0 40.5 -5.5t28.5 -13t25 -13t30 -5.5
q40 0 61 46zM317 1563l-69 -58h-87l114 135h83l116 -135h-88z" />
    <glyph glyph-name="uni1EAB" unicode="&#x1eab;" 
d="M601 0h-110l-37 66q-20 -37 -61 -58.5t-113 -21.5q-47 0 -92 18.5t-81 52t-58.5 83.5t-22.5 114q0 90 22.5 158.5t57.5 122t80 94.5t91 74.5t87 63.5t72 62v58q0 49 -25 85t-74 36q-92 0 -118 -82l-142 96q12 27 36 54.5t57.5 49t75.5 35t91 13.5q58 0 107 -23t84 -61.5
t54 -91t19 -111.5v-887zM436 289v327q-31 -20 -73 -50.5t-80 -71.5t-64.5 -96.5t-26.5 -125.5q0 -51 35 -85.5t86 -34.5q49 0 86 43t37 94zM512 1426q-25 -65 -100 -65q-19 0 -33 6t-28 13.5t-27.5 14t-28.5 6.5q-16 0 -32.5 -10.5t-32.5 -36.5l-48 41q21 38 46 54.5
t56 16.5q25 0 40.5 -5.5t28.5 -13t25 -13t30 -5.5q40 0 61 46zM324 1276l-69 -58h-87l114 135h83l116 -135h-88z" />
    <glyph glyph-name="uni1EAC" unicode="&#x1eac;" horiz-adv-x="641" 
d="M620 0h-168l-22 182h-211l-23 -182h-176l227 1473h150zM409 338l-84 645l-86 -645h170zM320 -190q-29 0 -51 22t-22 52q0 32 22 53t51 21q32 0 52.5 -21t20.5 -53q0 -30 -20.5 -52t-52.5 -22zM317 1563l-69 -58h-87l114 135h83l116 -135h-88z" />
    <glyph glyph-name="uni1EAD" unicode="&#x1ead;" 
d="M601 0h-110l-37 66q-20 -37 -61 -58.5t-113 -21.5q-47 0 -92 18.5t-81 52t-58.5 83.5t-22.5 114q0 90 22.5 158.5t57.5 122t80 94.5t91 74.5t87 63.5t72 62v58q0 49 -25 85t-74 36q-92 0 -118 -82l-142 96q12 27 36 54.5t57.5 49t75.5 35t91 13.5q58 0 107 -23t84 -61.5
t54 -91t19 -111.5v-887zM436 289v327q-31 -20 -73 -50.5t-80 -71.5t-64.5 -96.5t-26.5 -125.5q0 -51 35 -85.5t86 -34.5q49 0 86 43t37 94zM327 -205q-29 0 -51 22t-22 52q0 32 22 53t51 21q32 0 52.5 -21t20.5 -53q0 -30 -20.5 -52t-52.5 -22zM324 1276l-69 -58h-87
l114 135h83l116 -135h-88z" />
    <glyph glyph-name="uni1EAE" unicode="&#x1eae;" horiz-adv-x="641" 
d="M620 0h-168l-22 182h-211l-23 -182h-176l227 1473h150zM409 338l-84 645l-86 -645h170zM345 1644h-58l84 149h105zM247 1646q5 -17 19 -31q22 -22 54 -22t54 22q14 14 19 31h77q-7 -48 -43 -84q-45 -45 -107 -45t-107 45q-36 36 -43 84h77z" />
    <glyph glyph-name="uni1EAF" unicode="&#x1eaf;" 
d="M601 0h-110l-37 66q-20 -37 -61 -58.5t-113 -21.5q-47 0 -92 18.5t-81 52t-58.5 83.5t-22.5 114q0 90 22.5 158.5t57.5 122t80 94.5t91 74.5t87 63.5t72 62v58q0 49 -25 85t-74 36q-92 0 -118 -82l-142 96q12 27 36 54.5t57.5 49t75.5 35t91 13.5q58 0 107 -23t84 -61.5
t54 -91t19 -111.5v-887zM436 289v327q-31 -20 -73 -50.5t-80 -71.5t-64.5 -96.5t-26.5 -125.5q0 -51 35 -85.5t86 -34.5q49 0 86 43t37 94zM341 1332h-59l85 149h104zM247 1338q5 -17 19 -31q22 -22 54 -22t54 22q14 14 19 31h77q-7 -48 -43 -84q-45 -45 -107 -45t-107 45
q-36 36 -43 84h77z" />
    <glyph glyph-name="uni1EB0" unicode="&#x1eb0;" horiz-adv-x="641" 
d="M620 0h-168l-22 182h-211l-23 -182h-176l227 1473h150zM409 338l-84 645l-86 -645h170zM167 1804h104l85 -149h-59zM247 1646q5 -17 19 -31q22 -22 54 -22t54 22q14 14 19 31h77q-7 -48 -43 -84q-45 -45 -107 -45t-107 45q-36 36 -43 84h77z" />
    <glyph glyph-name="uni1EB1" unicode="&#x1eb1;" 
d="M601 0h-110l-37 66q-20 -37 -61 -58.5t-113 -21.5q-47 0 -92 18.5t-81 52t-58.5 83.5t-22.5 114q0 90 22.5 158.5t57.5 122t80 94.5t91 74.5t87 63.5t72 62v58q0 49 -25 85t-74 36q-92 0 -118 -82l-142 96q12 27 36 54.5t57.5 49t75.5 35t91 13.5q58 0 107 -23t84 -61.5
t54 -91t19 -111.5v-887zM436 289v327q-31 -20 -73 -50.5t-80 -71.5t-64.5 -96.5t-26.5 -125.5q0 -51 35 -85.5t86 -34.5q49 0 86 43t37 94zM174 1487h104l85 -149h-59zM247 1338q5 -17 19 -31q22 -22 54 -22t54 22q14 14 19 31h77q-7 -48 -43 -84q-45 -45 -107 -45t-107 45
q-36 36 -43 84h77z" />
    <glyph glyph-name="uni1EB2" unicode="&#x1eb2;" horiz-adv-x="641" 
d="M620 0h-168l-22 182h-211l-23 -182h-176l227 1473h150zM409 338l-84 645l-86 -645h170zM292 1646v8q0 19 4 35.5t10 30.5t13.5 26.5t16.5 25.5q15 23 15 45q0 8 -6 14t-15 6q-8 0 -19 -10l-11 -11l-1 -10h-51v11q0 16 5.5 31t16.5 26t26 17.5t34 6.5t34.5 -6.5t26.5 -18
t16.5 -26t5.5 -30.5t-4 -30.5t-11.5 -28t-15.5 -26t-17 -26.5q-10 -15 -17 -38q-3 -10 -5 -22h-51zM247 1646q5 -17 19 -31q22 -22 54 -22t54 22q14 14 19 31h77q-7 -48 -43 -84q-45 -45 -107 -45t-107 45q-36 36 -43 84h77z" />
    <glyph glyph-name="uni1EB3" unicode="&#x1eb3;" 
d="M601 0h-110l-37 66q-20 -37 -61 -58.5t-113 -21.5q-47 0 -92 18.5t-81 52t-58.5 83.5t-22.5 114q0 90 22.5 158.5t57.5 122t80 94.5t91 74.5t87 63.5t72 62v58q0 49 -25 85t-74 36q-92 0 -118 -82l-142 96q12 27 36 54.5t57.5 49t75.5 35t91 13.5q58 0 107 -23t84 -61.5
t54 -91t19 -111.5v-887zM436 289v327q-31 -20 -73 -50.5t-80 -71.5t-64.5 -96.5t-26.5 -125.5q0 -51 35 -85.5t86 -34.5q49 0 86 43t37 94zM298 1329v8q0 19 4 35.5t10 30.5t13.5 26.5t16.5 25.5q15 23 15 45q0 8 -6 14t-15 6q-8 0 -19 -10l-11 -11l-1 -10h-51v11
q0 16 5.5 31t16.5 26t26 17.5t34 6.5t34.5 -6.5t26.5 -18t16.5 -26t5.5 -30.5t-4 -30.5t-11.5 -28t-15.5 -26t-17 -26.5q-10 -15 -17 -38q-3 -10 -5 -22h-51zM247 1338q5 -17 19 -31q22 -22 54 -22t54 22q14 14 19 31h77q-7 -48 -43 -84q-45 -45 -107 -45t-107 45
q-36 36 -43 84h77z" />
    <glyph glyph-name="uni1EB4" unicode="&#x1eb4;" horiz-adv-x="641" 
d="M620 0h-168l-22 182h-211l-23 -182h-176l227 1473h150zM409 338l-84 645l-86 -645h170zM517 1739q-25 -65 -100 -65q-19 0 -33 6t-28 13.5t-27.5 14t-28.5 6.5q-16 0 -32.5 -10.5t-32.5 -36.5l-48 41q21 38 46 54.5t56 16.5q25 0 40.5 -5.5t28.5 -13t25 -13t30 -5.5
q40 0 61 46zM247 1646q5 -17 19 -31q22 -22 54 -22t54 22q14 14 19 31h77q-7 -48 -43 -84q-45 -45 -107 -45t-107 45q-36 36 -43 84h77z" />
    <glyph glyph-name="uni1EB5" unicode="&#x1eb5;" 
d="M601 0h-110l-37 66q-20 -37 -61 -58.5t-113 -21.5q-47 0 -92 18.5t-81 52t-58.5 83.5t-22.5 114q0 90 22.5 158.5t57.5 122t80 94.5t91 74.5t87 63.5t72 62v58q0 49 -25 85t-74 36q-92 0 -118 -82l-142 96q12 27 36 54.5t57.5 49t75.5 35t91 13.5q58 0 107 -23t84 -61.5
t54 -91t19 -111.5v-887zM436 289v327q-31 -20 -73 -50.5t-80 -71.5t-64.5 -96.5t-26.5 -125.5q0 -51 35 -85.5t86 -34.5q49 0 86 43t37 94zM512 1426q-25 -65 -100 -65q-19 0 -33 6t-28 13.5t-27.5 14t-28.5 6.5q-16 0 -32.5 -10.5t-32.5 -36.5l-48 41q21 38 46 54.5
t56 16.5q25 0 40.5 -5.5t28.5 -13t25 -13t30 -5.5q40 0 61 46zM247 1338q5 -17 19 -31q22 -22 54 -22t54 22q14 14 19 31h77q-7 -48 -43 -84q-45 -45 -107 -45t-107 45q-36 36 -43 84h77z" />
    <glyph glyph-name="uni1EB6" unicode="&#x1eb6;" horiz-adv-x="641" 
d="M620 0h-168l-22 182h-211l-23 -182h-176l227 1473h150zM409 338l-84 645l-86 -645h170zM320 -190q-29 0 -51 22t-22 52q0 32 22 53t51 21q32 0 52.5 -21t20.5 -53q0 -30 -20.5 -52t-52.5 -22zM247 1646q5 -17 19 -31q22 -22 54 -22t54 22q14 14 19 31h77q-7 -48 -43 -84
q-45 -45 -107 -45t-107 45q-36 36 -43 84h77z" />
    <glyph glyph-name="uni1EB7" unicode="&#x1eb7;" 
d="M601 0h-110l-37 66q-20 -37 -61 -58.5t-113 -21.5q-47 0 -92 18.5t-81 52t-58.5 83.5t-22.5 114q0 90 22.5 158.5t57.5 122t80 94.5t91 74.5t87 63.5t72 62v58q0 49 -25 85t-74 36q-92 0 -118 -82l-142 96q12 27 36 54.5t57.5 49t75.5 35t91 13.5q58 0 107 -23t84 -61.5
t54 -91t19 -111.5v-887zM436 289v327q-31 -20 -73 -50.5t-80 -71.5t-64.5 -96.5t-26.5 -125.5q0 -51 35 -85.5t86 -34.5q49 0 86 43t37 94zM327 -205q-29 0 -51 22t-22 52q0 32 22 53t51 21q32 0 52.5 -21t20.5 -53q0 -30 -20.5 -52t-52.5 -22zM247 1338q5 -17 19 -31
q22 -22 54 -22t54 22q14 14 19 31h77q-7 -48 -43 -84q-45 -45 -107 -45t-107 45q-36 36 -43 84h77z" />
    <glyph glyph-name="uni1EB8" unicode="&#x1eb8;" horiz-adv-x="555" 
d="M530 0h-487v1473h487v-166h-321v-467h186v-166h-186v-508h321v-166zM287 -190q-29 0 -51 22t-22 52q0 32 22 53t51 21q32 0 52.5 -21t20.5 -53q0 -30 -20.5 -52t-52.5 -22z" />
    <glyph glyph-name="uni1EB9" unicode="&#x1eb9;" 
d="M597 260q0 -59 -21.5 -111.5t-59.5 -91.5t-89 -61.5t-110 -22.5q-60 0 -111 22.5t-89 61.5t-59.5 91.5t-21.5 111.5v627q0 59 22.5 111.5t61.5 91t91 61.5t112 23q59 0 111.5 -22t91 -61.5t61 -97t22.5 -131.5q0 -108 -20.5 -183t-63.5 -134q-49 -66 -127.5 -118
t-195.5 -112v-55q0 -51 31.5 -86t83.5 -35q49 0 81.5 35t32.5 86v19l166 55v-74zM444 854q0 86 -36 120t-85 34q-51 0 -86 -36t-35 -85v-381q70 35 114 69.5t72 71.5q33 45 44.5 94.5t11.5 112.5zM306 -205q-29 0 -51 22t-22 52q0 32 22 53t51 21q32 0 52.5 -21t20.5 -53
q0 -30 -20.5 -52t-52.5 -22z" />
    <glyph glyph-name="uni1EBA" unicode="&#x1eba;" horiz-adv-x="555" 
d="M530 0h-487v1473h487v-166h-321v-467h186v-166h-186v-508h321v-166zM256 1513v8q0 19 4 35.5t10 30.5t13.5 26.5t16.5 25.5q15 23 15 45q0 8 -6 14t-15 6q-8 0 -19 -10l-11 -11l-1 -10h-51v11q0 16 5.5 31t16.5 26t26 17.5t34 6.5t34.5 -6.5t26.5 -18t16.5 -26t5.5 -30.5
t-4 -30.5t-11.5 -28t-15.5 -26t-17 -26.5q-10 -15 -17 -38q-3 -10 -5 -22h-51z" />
    <glyph glyph-name="uni1EBB" unicode="&#x1ebb;" 
d="M597 260q0 -59 -21.5 -111.5t-59.5 -91.5t-89 -61.5t-110 -22.5q-60 0 -111 22.5t-89 61.5t-59.5 91.5t-21.5 111.5v627q0 59 22.5 111.5t61.5 91t91 61.5t112 23q59 0 111.5 -22t91 -61.5t61 -97t22.5 -131.5q0 -108 -20.5 -183t-63.5 -134q-49 -66 -127.5 -118
t-195.5 -112v-55q0 -51 31.5 -86t83.5 -35q49 0 81.5 35t32.5 86v19l166 55v-74zM444 854q0 86 -36 120t-85 34q-51 0 -86 -36t-35 -85v-381q70 35 114 69.5t72 71.5q33 45 44.5 94.5t11.5 112.5zM292 1206v8q0 19 4 35.5t10 30.5t13.5 26.5t16.5 25.5q15 23 15 45
q0 8 -6 14t-15 6q-8 0 -19 -10l-11 -11l-1 -10h-51v11q0 16 5.5 31t16.5 26t26 17.5t34 6.5t34.5 -6.5t26.5 -18t16.5 -26t5.5 -30.5t-4 -30.5t-11.5 -28t-15.5 -26t-17 -26.5q-10 -15 -17 -38q-3 -10 -5 -22h-51z" />
    <glyph glyph-name="uni1EBC" unicode="&#x1ebc;" horiz-adv-x="555" 
d="M530 0h-487v1473h487v-166h-321v-467h186v-166h-186v-508h321v-166zM445 1591q-25 -65 -100 -65q-19 0 -33 6t-28 13.5t-27.5 14t-28.5 6.5q-16 0 -32.5 -10.5t-32.5 -36.5l-48 41q21 38 46 54.5t56 16.5q25 0 40.5 -5.5t28.5 -13t25 -13t30 -5.5q40 0 61 46z" />
    <glyph glyph-name="uni1EBD" unicode="&#x1ebd;" 
d="M597 260q0 -59 -21.5 -111.5t-59.5 -91.5t-89 -61.5t-110 -22.5q-60 0 -111 22.5t-89 61.5t-59.5 91.5t-21.5 111.5v627q0 59 22.5 111.5t61.5 91t91 61.5t112 23q59 0 111.5 -22t91 -61.5t61 -97t22.5 -131.5q0 -108 -20.5 -183t-63.5 -134q-49 -66 -127.5 -118
t-195.5 -112v-55q0 -51 31.5 -86t83.5 -35q49 0 81.5 35t32.5 86v19l166 55v-74zM444 854q0 86 -36 120t-85 34q-51 0 -86 -36t-35 -85v-381q70 35 114 69.5t72 71.5q33 45 44.5 94.5t11.5 112.5zM497 1278q-25 -65 -100 -65q-19 0 -33 6t-28 13.5t-27.5 14t-28.5 6.5
q-16 0 -32.5 -10.5t-32.5 -36.5l-48 41q21 38 46 54.5t56 16.5q25 0 40.5 -5.5t28.5 -13t25 -13t30 -5.5q40 0 61 46z" />
    <glyph glyph-name="uni1EBE" unicode="&#x1ebe;" horiz-adv-x="555" 
d="M530 0h-487v1473h487v-166h-321v-467h186v-166h-186v-508h321v-166zM455 1594h-58l84 149h105zM286 1563l-69 -58h-87l114 135h83l116 -135h-88z" />
    <glyph glyph-name="uni1EBF" unicode="&#x1ebf;" 
d="M597 260q0 -59 -21.5 -111.5t-59.5 -91.5t-89 -61.5t-110 -22.5q-60 0 -111 22.5t-89 61.5t-59.5 91.5t-21.5 111.5v627q0 59 22.5 111.5t61.5 91t91 61.5t112 23q59 0 111.5 -22t91 -61.5t61 -97t22.5 -131.5q0 -108 -20.5 -183t-63.5 -134q-49 -66 -127.5 -118
t-195.5 -112v-55q0 -51 31.5 -86t83.5 -35q49 0 81.5 35t32.5 86v19l166 55v-74zM444 854q0 86 -36 120t-85 34q-51 0 -86 -36t-35 -85v-381q70 35 114 69.5t72 71.5q33 45 44.5 94.5t11.5 112.5zM488 1302h-59l85 149h104zM324 1276l-69 -58h-87l114 135h83l116 -135h-88z
" />
    <glyph glyph-name="uni1EC0" unicode="&#x1ec0;" horiz-adv-x="555" 
d="M530 0h-487v1473h487v-166h-321v-467h186v-166h-186v-508h321v-166zM291 1738h104l85 -149h-59zM286 1563l-69 -58h-87l114 135h83l116 -135h-88z" />
    <glyph glyph-name="uni1EC1" unicode="&#x1ec1;" 
d="M597 260q0 -59 -21.5 -111.5t-59.5 -91.5t-89 -61.5t-110 -22.5q-60 0 -111 22.5t-89 61.5t-59.5 91.5t-21.5 111.5v627q0 59 22.5 111.5t61.5 91t91 61.5t112 23q59 0 111.5 -22t91 -61.5t61 -97t22.5 -131.5q0 -108 -20.5 -183t-63.5 -134q-49 -66 -127.5 -118
t-195.5 -112v-55q0 -51 31.5 -86t83.5 -35q49 0 81.5 35t32.5 86v19l166 55v-74zM444 854q0 86 -36 120t-85 34q-51 0 -86 -36t-35 -85v-381q70 35 114 69.5t72 71.5q33 45 44.5 94.5t11.5 112.5zM317 1456h104l85 -149h-59zM324 1276l-69 -58h-87l114 135h83l116 -135h-88z
" />
    <glyph glyph-name="uni1EC2" unicode="&#x1ec2;" horiz-adv-x="555" 
d="M530 0h-487v1473h487v-166h-321v-467h186v-166h-186v-508h321v-166zM414 1575v8q0 19 4 35.5t10 30.5t13.5 26.5t16.5 25.5q15 23 15 45q0 8 -6 14t-15 6q-8 0 -19 -10l-11 -11l-1 -10h-51v11q0 16 5.5 31t16.5 26t26 17.5t34 6.5t34.5 -6.5t26.5 -18t16.5 -26t5.5 -30.5
t-4 -30.5t-11.5 -28t-15.5 -26t-17 -26.5q-10 -15 -17 -38q-3 -10 -5 -22h-51zM286 1563l-69 -58h-87l114 135h83l116 -135h-88z" />
    <glyph glyph-name="uni1EC3" unicode="&#x1ec3;" 
d="M597 260q0 -59 -21.5 -111.5t-59.5 -91.5t-89 -61.5t-110 -22.5q-60 0 -111 22.5t-89 61.5t-59.5 91.5t-21.5 111.5v627q0 59 22.5 111.5t61.5 91t91 61.5t112 23q59 0 111.5 -22t91 -61.5t61 -97t22.5 -131.5q0 -108 -20.5 -183t-63.5 -134q-49 -66 -127.5 -118
t-195.5 -112v-55q0 -51 31.5 -86t83.5 -35q49 0 81.5 35t32.5 86v19l166 55v-74zM444 854q0 86 -36 120t-85 34q-51 0 -86 -36t-35 -85v-381q70 35 114 69.5t72 71.5q33 45 44.5 94.5t11.5 112.5zM450 1282v8q0 19 4 35.5t10 30.5t13.5 26.5t16.5 25.5q15 23 15 45
q0 8 -6 14t-15 6q-8 0 -19 -10l-11 -11l-1 -10h-51v11q0 16 5.5 31t16.5 26t26 17.5t34 6.5t34.5 -6.5t26.5 -18t16.5 -26t5.5 -30.5t-4 -30.5t-11.5 -28t-15.5 -26t-17 -26.5q-10 -15 -17 -38q-3 -10 -5 -22h-51zM324 1276l-69 -58h-87l114 135h83l116 -135h-88z" />
    <glyph glyph-name="uni1EC4" unicode="&#x1ec4;" horiz-adv-x="555" 
d="M530 0h-487v1473h487v-166h-321v-467h186v-166h-186v-508h321v-166zM491 1719q-25 -65 -100 -65q-19 0 -33 6t-28 13.5t-27.5 14t-28.5 6.5q-16 0 -32.5 -10.5t-32.5 -36.5l-48 41q21 38 46 54.5t56 16.5q25 0 40.5 -5.5t28.5 -13t25 -13t30 -5.5q40 0 61 46zM286 1563
l-69 -58h-87l114 135h83l116 -135h-88z" />
    <glyph glyph-name="uni1EC5" unicode="&#x1ec5;" 
d="M597 260q0 -59 -21.5 -111.5t-59.5 -91.5t-89 -61.5t-110 -22.5q-60 0 -111 22.5t-89 61.5t-59.5 91.5t-21.5 111.5v627q0 59 22.5 111.5t61.5 91t91 61.5t112 23q59 0 111.5 -22t91 -61.5t61 -97t22.5 -131.5q0 -108 -20.5 -183t-63.5 -134q-49 -66 -127.5 -118
t-195.5 -112v-55q0 -51 31.5 -86t83.5 -35q49 0 81.5 35t32.5 86v19l166 55v-74zM444 854q0 86 -36 120t-85 34q-51 0 -86 -36t-35 -85v-381q70 35 114 69.5t72 71.5q33 45 44.5 94.5t11.5 112.5zM528 1427q-25 -65 -100 -65q-19 0 -33 6t-28 13.5t-27.5 14t-28.5 6.5
q-16 0 -32.5 -10.5t-32.5 -36.5l-48 41q21 38 46 54.5t56 16.5q25 0 40.5 -5.5t28.5 -13t25 -13t30 -5.5q40 0 61 46zM324 1276l-69 -58h-87l114 135h83l116 -135h-88z" />
    <glyph glyph-name="uni1EC6" unicode="&#x1ec6;" horiz-adv-x="555" 
d="M530 0h-487v1473h487v-166h-321v-467h186v-166h-186v-508h321v-166zM287 -190q-29 0 -51 22t-22 52q0 32 22 53t51 21q32 0 52.5 -21t20.5 -53q0 -30 -20.5 -52t-52.5 -22zM286 1563l-69 -58h-87l114 135h83l116 -135h-88z" />
    <glyph glyph-name="uni1EC7" unicode="&#x1ec7;" 
d="M597 260q0 -59 -21.5 -111.5t-59.5 -91.5t-89 -61.5t-110 -22.5q-60 0 -111 22.5t-89 61.5t-59.5 91.5t-21.5 111.5v627q0 59 22.5 111.5t61.5 91t91 61.5t112 23q59 0 111.5 -22t91 -61.5t61 -97t22.5 -131.5q0 -108 -20.5 -183t-63.5 -134q-49 -66 -127.5 -118
t-195.5 -112v-55q0 -51 31.5 -86t83.5 -35q49 0 81.5 35t32.5 86v19l166 55v-74zM444 854q0 86 -36 120t-85 34q-51 0 -86 -36t-35 -85v-381q70 35 114 69.5t72 71.5q33 45 44.5 94.5t11.5 112.5zM306 -205q-29 0 -51 22t-22 52q0 32 22 53t51 21q32 0 52.5 -21t20.5 -53
q0 -30 -20.5 -52t-52.5 -22zM324 1276l-69 -58h-87l114 135h83l116 -135h-88z" />
    <glyph glyph-name="uni1EC8" unicode="&#x1ec8;" horiz-adv-x="256" 
d="M209 0h-166v1473h166v-1473zM87 1513v8q0 19 4 35.5t10 30.5t13.5 26.5t16.5 25.5q15 23 15 45q0 8 -6 14t-15 6q-8 0 -19 -10l-11 -11l-1 -10h-51v11q0 16 5.5 31t16.5 26t26 17.5t34 6.5t34.5 -6.5t26.5 -18t16.5 -26t5.5 -30.5t-4 -30.5t-11.5 -28t-15.5 -26
t-17 -26.5q-10 -15 -17 -38q-3 -10 -5 -22h-51z" />
    <glyph glyph-name="uni1EC9" unicode="&#x1ec9;" horiz-adv-x="245" 
d="M202 0h-166v1149h166v-1149zM82 1216v8q0 19 4 35.5t10 30.5t13.5 26.5t16.5 25.5q15 23 15 45q0 8 -6 14t-15 6q-8 0 -19 -10l-11 -11l-1 -10h-51v11q0 16 5.5 31t16.5 26t26 17.5t34 6.5t34.5 -6.5t26.5 -18t16.5 -26t5.5 -30.5t-4 -30.5t-11.5 -28t-15.5 -26
t-17 -26.5q-10 -15 -17 -38q-3 -10 -5 -22h-51z" />
    <glyph glyph-name="uni1ECA" unicode="&#x1eca;" horiz-adv-x="256" 
d="M209 0h-166v1473h166v-1473zM126 -190q-29 0 -51 22t-22 52q0 32 22 53t51 21q32 0 52.5 -21t20.5 -53q0 -30 -20.5 -52t-52.5 -22z" />
    <glyph glyph-name="uni1ECB" unicode="&#x1ecb;" horiz-adv-x="245" 
d="M208 1432q0 -43 -24.5 -74t-61.5 -31t-61.5 32t-24.5 73q0 38 24.5 70t61.5 32t61.5 -30.5t24.5 -71.5zM202 0h-166v1149h166v-1149zM119 -205q-29 0 -51 22t-22 52q0 32 22 53t51 21q32 0 52.5 -21t20.5 -53q0 -30 -20.5 -52t-52.5 -22z" />
    <glyph glyph-name="uni1ECC" unicode="&#x1ecc;" horiz-adv-x="653" 
d="M611 260q0 -59 -22.5 -111.5t-61 -91.5t-91 -61.5t-111.5 -22.5q-60 0 -112 22.5t-91 61.5t-61.5 91.5t-22.5 111.5v950q0 60 22.5 112t61.5 91t91 61.5t112 22.5q59 0 111.5 -22.5t91 -61.5t61 -91t22.5 -112v-950zM446 260v950q0 52 -36 86.5t-85 34.5q-51 0 -86 -34.5
t-35 -86.5v-950q0 -51 35 -86t86 -35q49 0 85 35t36 86zM325 -205q-29 0 -51 22t-22 52q0 32 22 53t51 21q32 0 52.5 -21t20.5 -53q0 -30 -20.5 -52t-52.5 -22z" />
    <glyph glyph-name="uni1ECD" unicode="&#x1ecd;" horiz-adv-x="649" 
d="M609 260q0 -59 -22.5 -111.5t-61 -91.5t-91 -61.5t-111.5 -22.5q-60 0 -112 22.5t-91 61.5t-61.5 91.5t-22.5 111.5v627q0 59 22.5 111.5t61.5 91t91 61.5t112 23q59 0 111.5 -23t91 -61.5t61 -91t22.5 -111.5v-627zM444 260v627q0 49 -36 85t-85 36q-51 0 -86 -36
t-35 -85v-627q0 -51 35 -86t86 -35q49 0 85 35t36 86zM323 -205q-29 0 -51 22t-22 52q0 32 22 53t51 21q32 0 52.5 -21t20.5 -53q0 -30 -20.5 -52t-52.5 -22z" />
    <glyph glyph-name="uni1ECE" unicode="&#x1ece;" horiz-adv-x="653" 
d="M611 260q0 -59 -22.5 -111.5t-61 -91.5t-91 -61.5t-111.5 -22.5q-60 0 -112 22.5t-91 61.5t-61.5 91.5t-22.5 111.5v950q0 60 22.5 112t61.5 91t91 61.5t112 22.5q59 0 111.5 -22.5t91 -61.5t61 -91t22.5 -112v-950zM446 260v950q0 52 -36 86.5t-85 34.5q-51 0 -86 -34.5
t-35 -86.5v-950q0 -51 35 -86t86 -35q49 0 85 35t36 86zM287 1523v8q0 19 4 35.5t10 30.5t13.5 26.5t16.5 25.5q15 23 15 45q0 8 -6 14t-15 6q-8 0 -19 -10l-11 -11l-1 -10h-51v11q0 16 5.5 31t16.5 26t26 17.5t34 6.5t34.5 -6.5t26.5 -18t16.5 -26t5.5 -30.5t-4 -30.5
t-11.5 -28t-15.5 -26t-17 -26.5q-10 -15 -17 -38q-3 -10 -5 -22h-51z" />
    <glyph glyph-name="uni1ECF" unicode="&#x1ecf;" horiz-adv-x="649" 
d="M609 260q0 -59 -22.5 -111.5t-61 -91.5t-91 -61.5t-111.5 -22.5q-60 0 -112 22.5t-91 61.5t-61.5 91.5t-22.5 111.5v627q0 59 22.5 111.5t61.5 91t91 61.5t112 23q59 0 111.5 -23t91 -61.5t61 -91t22.5 -111.5v-627zM444 260v627q0 49 -36 85t-85 36q-51 0 -86 -36
t-35 -85v-627q0 -51 35 -86t86 -35q49 0 85 35t36 86zM272 1216v8q0 19 4 35.5t10 30.5t13.5 26.5t16.5 25.5q15 23 15 45q0 8 -6 14t-15 6q-8 0 -19 -10l-11 -11l-1 -10h-51v11q0 16 5.5 31t16.5 26t26 17.5t34 6.5t34.5 -6.5t26.5 -18t16.5 -26t5.5 -30.5t-4 -30.5
t-11.5 -28t-15.5 -26t-17 -26.5q-10 -15 -17 -38q-3 -10 -5 -22h-51z" />
    <glyph glyph-name="uni1ED0" unicode="&#x1ed0;" horiz-adv-x="653" 
d="M611 260q0 -59 -22.5 -111.5t-61 -91.5t-91 -61.5t-111.5 -22.5q-60 0 -112 22.5t-91 61.5t-61.5 91.5t-22.5 111.5v950q0 60 22.5 112t61.5 91t91 61.5t112 22.5q59 0 111.5 -22.5t91 -61.5t61 -91t22.5 -112v-950zM446 260v950q0 52 -36 86.5t-85 34.5q-51 0 -86 -34.5
t-35 -86.5v-950q0 -51 35 -86t86 -35q49 0 85 35t36 86zM488 1608h-59l85 149h104zM324 1578l-69 -58h-87l114 135h83l116 -135h-88z" />
    <glyph glyph-name="uni1ED1" unicode="&#x1ed1;" horiz-adv-x="649" 
d="M609 260q0 -59 -22.5 -111.5t-61 -91.5t-91 -61.5t-111.5 -22.5q-60 0 -112 22.5t-91 61.5t-61.5 91.5t-22.5 111.5v627q0 59 22.5 111.5t61.5 91t91 61.5t112 23q59 0 111.5 -23t91 -61.5t61 -91t22.5 -111.5v-627zM444 260v627q0 49 -36 85t-85 36q-51 0 -86 -36
t-35 -85v-627q0 -51 35 -86t86 -35q49 0 85 35t36 86zM487 1307h-59l85 149h104zM322 1276l-69 -58h-87l114 135h83l116 -135h-88z" />
    <glyph glyph-name="uni1ED2" unicode="&#x1ed2;" horiz-adv-x="653" 
d="M611 260q0 -59 -22.5 -111.5t-61 -91.5t-91 -61.5t-111.5 -22.5q-60 0 -112 22.5t-91 61.5t-61.5 91.5t-22.5 111.5v950q0 60 22.5 112t61.5 91t91 61.5t112 22.5q59 0 111.5 -22.5t91 -61.5t61 -91t22.5 -112v-950zM446 260v950q0 52 -36 86.5t-85 34.5q-51 0 -86 -34.5
t-35 -86.5v-950q0 -51 35 -86t86 -35q49 0 85 35t36 86zM327 1747h104l85 -149h-59zM324 1578l-69 -58h-87l114 135h83l116 -135h-88z" />
    <glyph glyph-name="uni1ED3" unicode="&#x1ed3;" horiz-adv-x="649" 
d="M609 260q0 -59 -22.5 -111.5t-61 -91.5t-91 -61.5t-111.5 -22.5q-60 0 -112 22.5t-91 61.5t-61.5 91.5t-22.5 111.5v627q0 59 22.5 111.5t61.5 91t91 61.5t112 23q59 0 111.5 -23t91 -61.5t61 -91t22.5 -111.5v-627zM444 260v627q0 49 -36 85t-85 36q-51 0 -86 -36
t-35 -85v-627q0 -51 35 -86t86 -35q49 0 85 35t36 86zM337 1446h104l85 -149h-59zM322 1276l-69 -58h-87l114 135h83l116 -135h-88z" />
    <glyph glyph-name="uni1ED4" unicode="&#x1ed4;" horiz-adv-x="653" 
d="M611 260q0 -59 -22.5 -111.5t-61 -91.5t-91 -61.5t-111.5 -22.5q-60 0 -112 22.5t-91 61.5t-61.5 91.5t-22.5 111.5v950q0 60 22.5 112t61.5 91t91 61.5t112 22.5q59 0 111.5 -22.5t91 -61.5t61 -91t22.5 -112v-950zM446 260v950q0 52 -36 86.5t-85 34.5q-51 0 -86 -34.5
t-35 -86.5v-950q0 -51 35 -86t86 -35q49 0 85 35t36 86zM440 1590v8q0 19 4 35.5t10 30.5t13.5 26.5t16.5 25.5q15 23 15 45q0 8 -6 14t-15 6q-8 0 -19 -10l-11 -11l-1 -10h-51v11q0 16 5.5 31t16.5 26t26 17.5t34 6.5t34.5 -6.5t26.5 -18t16.5 -26t5.5 -30.5t-4 -30.5
t-11.5 -28t-15.5 -26t-17 -26.5q-10 -15 -17 -38q-3 -10 -5 -22h-51zM324 1578l-69 -58h-87l114 135h83l116 -135h-88z" />
    <glyph glyph-name="uni1ED5" unicode="&#x1ed5;" horiz-adv-x="649" 
d="M609 260q0 -59 -22.5 -111.5t-61 -91.5t-91 -61.5t-111.5 -22.5q-60 0 -112 22.5t-91 61.5t-61.5 91.5t-22.5 111.5v627q0 59 22.5 111.5t61.5 91t91 61.5t112 23q59 0 111.5 -23t91 -61.5t61 -91t22.5 -111.5v-627zM444 260v627q0 49 -36 85t-85 36q-51 0 -86 -36
t-35 -85v-627q0 -51 35 -86t86 -35q49 0 85 35t36 86zM456 1287v8q0 19 4 35.5t10 30.5t13.5 26.5t16.5 25.5q15 23 15 45q0 8 -6 14t-15 6q-8 0 -19 -10l-11 -11l-1 -10h-51v11q0 16 5.5 31t16.5 26t26 17.5t34 6.5t34.5 -6.5t26.5 -18t16.5 -26t5.5 -30.5t-4 -30.5
t-11.5 -28t-15.5 -26t-17 -26.5q-10 -15 -17 -38q-3 -10 -5 -22h-51zM322 1276l-69 -58h-87l114 135h83l116 -135h-88z" />
    <glyph glyph-name="uni1ED6" unicode="&#x1ed6;" horiz-adv-x="653" 
d="M611 260q0 -59 -22.5 -111.5t-61 -91.5t-91 -61.5t-111.5 -22.5q-60 0 -112 22.5t-91 61.5t-61.5 91.5t-22.5 111.5v950q0 60 22.5 112t61.5 91t91 61.5t112 22.5q59 0 111.5 -22.5t91 -61.5t61 -91t22.5 -112v-950zM446 260v950q0 52 -36 86.5t-85 34.5q-51 0 -86 -34.5
t-35 -86.5v-950q0 -51 35 -86t86 -35q49 0 85 35t36 86zM522 1729q-25 -65 -100 -65q-19 0 -33 6t-28 13.5t-27.5 14t-28.5 6.5q-16 0 -32.5 -10.5t-32.5 -36.5l-48 41q21 38 46 54.5t56 16.5q25 0 40.5 -5.5t28.5 -13t25 -13t30 -5.5q40 0 61 46zM324 1578l-69 -58h-87
l114 135h83l116 -135h-88z" />
    <glyph glyph-name="uni1ED7" unicode="&#x1ed7;" horiz-adv-x="649" 
d="M609 260q0 -59 -22.5 -111.5t-61 -91.5t-91 -61.5t-111.5 -22.5q-60 0 -112 22.5t-91 61.5t-61.5 91.5t-22.5 111.5v627q0 59 22.5 111.5t61.5 91t91 61.5t112 23q59 0 111.5 -23t91 -61.5t61 -91t22.5 -111.5v-627zM444 260v627q0 49 -36 85t-85 36q-51 0 -86 -36
t-35 -85v-627q0 -51 35 -86t86 -35q49 0 85 35t36 86zM522 1437q-25 -65 -100 -65q-19 0 -33 6t-28 13.5t-27.5 14t-28.5 6.5q-16 0 -32.5 -10.5t-32.5 -36.5l-48 41q21 38 46 54.5t56 16.5q25 0 40.5 -5.5t28.5 -13t25 -13t30 -5.5q40 0 61 46zM322 1276l-69 -58h-87
l114 135h83l116 -135h-88z" />
    <glyph glyph-name="uni1ED8" unicode="&#x1ed8;" horiz-adv-x="653" 
d="M611 260q0 -59 -22.5 -111.5t-61 -91.5t-91 -61.5t-111.5 -22.5q-60 0 -112 22.5t-91 61.5t-61.5 91.5t-22.5 111.5v950q0 60 22.5 112t61.5 91t91 61.5t112 22.5q59 0 111.5 -22.5t91 -61.5t61 -91t22.5 -112v-950zM446 260v950q0 52 -36 86.5t-85 34.5q-51 0 -86 -34.5
t-35 -86.5v-950q0 -51 35 -86t86 -35q49 0 85 35t36 86zM325 -205q-29 0 -51 22t-22 52q0 32 22 53t51 21q32 0 52.5 -21t20.5 -53q0 -30 -20.5 -52t-52.5 -22zM324 1578l-69 -58h-87l114 135h83l116 -135h-88z" />
    <glyph glyph-name="uni1ED9" unicode="&#x1ed9;" horiz-adv-x="649" 
d="M609 260q0 -59 -22.5 -111.5t-61 -91.5t-91 -61.5t-111.5 -22.5q-60 0 -112 22.5t-91 61.5t-61.5 91.5t-22.5 111.5v627q0 59 22.5 111.5t61.5 91t91 61.5t112 23q59 0 111.5 -23t91 -61.5t61 -91t22.5 -111.5v-627zM444 260v627q0 49 -36 85t-85 36q-51 0 -86 -36
t-35 -85v-627q0 -51 35 -86t86 -35q49 0 85 35t36 86zM323 -205q-29 0 -51 22t-22 52q0 32 22 53t51 21q32 0 52.5 -21t20.5 -53q0 -30 -20.5 -52t-52.5 -22zM322 1276l-69 -58h-87l114 135h83l116 -135h-88z" />
    <glyph glyph-name="uni1EDA" unicode="&#x1eda;" horiz-adv-x="653" 
d="M446 260v950q0 52 -36 86.5t-85 34.5q-51 0 -86 -34.5t-35 -86.5v-950q0 -51 35 -86t86 -35q49 0 85 35t36 86zM314 1532h-59l85 149h104zM598 1297q13 -41 13 -87v-950q0 -59 -22.5 -111.5t-61 -91.5t-91 -61.5t-111.5 -22.5q-60 0 -112 22.5t-91 61.5t-61.5 91.5
t-22.5 111.5v950q0 60 22.5 112t61.5 91t91 61.5t112 22.5q59 0 112 -22q39 -17 71 -44l7 87h147z" />
    <glyph glyph-name="uni1EDB" unicode="&#x1edb;" horiz-adv-x="649" 
d="M444 260v627q0 49 -36 85t-85 36q-51 0 -86 -36t-35 -85v-627q0 -51 35 -86t86 -35q49 0 85 35t36 86zM303 1215h-59l85 149h104zM589 993q20 -50 20 -106v-627q0 -59 -22.5 -111.5t-61 -91.5t-91 -61.5t-111.5 -22.5q-60 0 -112 22.5t-91 61.5t-61.5 91.5t-22.5 111.5
v627q0 59 22.5 111.5t61.5 91t91 61.5t112 23q59 0 112 -23q34 -15 62 -36l8 96h147z" />
    <glyph glyph-name="uni1EDC" unicode="&#x1edc;" horiz-adv-x="653" 
d="M446 260v950q0 52 -36 86.5t-85 34.5q-51 0 -86 -34.5t-35 -86.5v-950q0 -51 35 -86t86 -35q49 0 85 35t36 86zM183 1681h104l85 -149h-59zM598 1297q13 -41 13 -87v-950q0 -59 -22.5 -111.5t-61 -91.5t-91 -61.5t-111.5 -22.5q-60 0 -112 22.5t-91 61.5t-61.5 91.5
t-22.5 111.5v950q0 60 22.5 112t61.5 91t91 61.5t112 22.5q59 0 112 -22q39 -17 71 -44l7 87h147z" />
    <glyph glyph-name="uni1EDD" unicode="&#x1edd;" horiz-adv-x="649" 
d="M444 260v627q0 49 -36 85t-85 36q-51 0 -86 -36t-35 -85v-627q0 -51 35 -86t86 -35q49 0 85 35t36 86zM184 1364h104l85 -149h-59zM589 993q20 -50 20 -106v-627q0 -59 -22.5 -111.5t-61 -91.5t-91 -61.5t-111.5 -22.5q-60 0 -112 22.5t-91 61.5t-61.5 91.5t-22.5 111.5
v627q0 59 22.5 111.5t61.5 91t91 61.5t112 23q59 0 112 -23q34 -15 62 -36l8 96h147z" />
    <glyph glyph-name="uni1EDE" unicode="&#x1ede;" horiz-adv-x="653" 
d="M446 260v950q0 52 -36 86.5t-85 34.5q-51 0 -86 -34.5t-35 -86.5v-950q0 -51 35 -86t86 -35q49 0 85 35t36 86zM287 1523v8q0 19 4 35.5t10 30.5t13.5 26.5t16.5 25.5q15 23 15 45q0 8 -6 14t-15 6q-8 0 -19 -10l-11 -11l-1 -10h-51v11q0 16 5.5 31t16.5 26t26 17.5
t34 6.5t34.5 -6.5t26.5 -18t16.5 -26t5.5 -30.5t-4 -30.5t-11.5 -28t-15.5 -26t-17 -26.5q-10 -15 -17 -38q-3 -10 -5 -22h-51zM598 1297q13 -41 13 -87v-950q0 -59 -22.5 -111.5t-61 -91.5t-91 -61.5t-111.5 -22.5q-60 0 -112 22.5t-91 61.5t-61.5 91.5t-22.5 111.5v950
q0 60 22.5 112t61.5 91t91 61.5t112 22.5q59 0 112 -22q39 -17 71 -44l7 87h147z" />
    <glyph glyph-name="uni1EDF" unicode="&#x1edf;" horiz-adv-x="649" 
d="M444 260v627q0 49 -36 85t-85 36q-51 0 -86 -36t-35 -85v-627q0 -51 35 -86t86 -35q49 0 85 35t36 86zM272 1216v8q0 19 4 35.5t10 30.5t13.5 26.5t16.5 25.5q15 23 15 45q0 8 -6 14t-15 6q-8 0 -19 -10l-11 -11l-1 -10h-51v11q0 16 5.5 31t16.5 26t26 17.5t34 6.5
t34.5 -6.5t26.5 -18t16.5 -26t5.5 -30.5t-4 -30.5t-11.5 -28t-15.5 -26t-17 -26.5q-10 -15 -17 -38q-3 -10 -5 -22h-51zM589 993q20 -50 20 -106v-627q0 -59 -22.5 -111.5t-61 -91.5t-91 -61.5t-111.5 -22.5q-60 0 -112 22.5t-91 61.5t-61.5 91.5t-22.5 111.5v627
q0 59 22.5 111.5t61.5 91t91 61.5t112 23q59 0 112 -23q34 -15 62 -36l8 96h147z" />
    <glyph glyph-name="uni1EE0" unicode="&#x1ee0;" horiz-adv-x="653" 
d="M446 260v950q0 52 -36 86.5t-85 34.5q-51 0 -86 -34.5t-35 -86.5v-950q0 -51 35 -86t86 -35q49 0 85 35t36 86zM491 1601q-25 -65 -100 -65q-19 0 -33 6t-28 13.5t-27.5 14t-28.5 6.5q-16 0 -32.5 -10.5t-32.5 -36.5l-48 41q21 38 46 54.5t56 16.5q25 0 40.5 -5.5
t28.5 -13t25 -13t30 -5.5q40 0 61 46zM598 1297q13 -41 13 -87v-950q0 -59 -22.5 -111.5t-61 -91.5t-91 -61.5t-111.5 -22.5q-60 0 -112 22.5t-91 61.5t-61.5 91.5t-22.5 111.5v950q0 60 22.5 112t61.5 91t91 61.5t112 22.5q59 0 112 -22q39 -17 71 -44l7 87h147z" />
    <glyph glyph-name="uni1EE1" unicode="&#x1ee1;" horiz-adv-x="649" 
d="M444 260v627q0 49 -36 85t-85 36q-51 0 -86 -36t-35 -85v-627q0 -51 35 -86t86 -35q49 0 85 35t36 86zM481 1278q-25 -65 -100 -65q-19 0 -33 6t-28 13.5t-27.5 14t-28.5 6.5q-16 0 -32.5 -10.5t-32.5 -36.5l-48 41q21 38 46 54.5t56 16.5q25 0 40.5 -5.5t28.5 -13
t25 -13t30 -5.5q40 0 61 46zM589 993q20 -50 20 -106v-627q0 -59 -22.5 -111.5t-61 -91.5t-91 -61.5t-111.5 -22.5q-60 0 -112 22.5t-91 61.5t-61.5 91.5t-22.5 111.5v627q0 59 22.5 111.5t61.5 91t91 61.5t112 23q59 0 112 -23q34 -15 62 -36l8 96h147z" />
    <glyph glyph-name="uni1EE2" unicode="&#x1ee2;" horiz-adv-x="653" 
d="M446 260v950q0 52 -36 86.5t-85 34.5q-51 0 -86 -34.5t-35 -86.5v-950q0 -51 35 -86t86 -35q49 0 85 35t36 86zM325 -205q-29 0 -51 22t-22 52q0 32 22 53t51 21q32 0 52.5 -21t20.5 -53q0 -30 -20.5 -52t-52.5 -22zM598 1297q13 -41 13 -87v-950q0 -59 -22.5 -111.5
t-61 -91.5t-91 -61.5t-111.5 -22.5q-60 0 -112 22.5t-91 61.5t-61.5 91.5t-22.5 111.5v950q0 60 22.5 112t61.5 91t91 61.5t112 22.5q59 0 112 -22q39 -17 71 -44l7 87h147z" />
    <glyph glyph-name="uni1EE3" unicode="&#x1ee3;" horiz-adv-x="649" 
d="M444 260v627q0 49 -36 85t-85 36q-51 0 -86 -36t-35 -85v-627q0 -51 35 -86t86 -35q49 0 85 35t36 86zM323 -205q-29 0 -51 22t-22 52q0 32 22 53t51 21q32 0 52.5 -21t20.5 -53q0 -30 -20.5 -52t-52.5 -22zM589 993q20 -50 20 -106v-627q0 -59 -22.5 -111.5t-61 -91.5
t-91 -61.5t-111.5 -22.5q-60 0 -112 22.5t-91 61.5t-61.5 91.5t-22.5 111.5v627q0 59 22.5 111.5t61.5 91t91 61.5t112 23q59 0 112 -23q34 -15 62 -36l8 96h147z" />
    <glyph glyph-name="uni1EE4" unicode="&#x1ee4;" horiz-adv-x="657" 
d="M613 260q0 -59 -22.5 -111.5t-61 -91.5t-91 -61.5t-111.5 -22.5q-60 0 -112 22.5t-91 61.5t-61.5 91.5t-22.5 111.5v1213h166v-1213q0 -51 35 -86t86 -35q49 0 85 35t36 86v1213h165v-1213zM327 -205q-29 0 -51 22t-22 52q0 32 22 53t51 21q32 0 52.5 -21t20.5 -53
q0 -30 -20.5 -52t-52.5 -22z" />
    <glyph glyph-name="uni1EE5" unicode="&#x1ee5;" horiz-adv-x="651" 
d="M605 0h-110l-37 55q-17 -22 -51.5 -42.5t-100.5 -20.5q-53 0 -101 19.5t-85 56t-58.5 90t-21.5 121.5v870h166v-870q0 -52 32.5 -86.5t84.5 -34.5q49 0 82.5 34.5t33.5 86.5v870h166v-1149zM323 -205q-29 0 -51 22t-22 52q0 32 22 53t51 21q32 0 52.5 -21t20.5 -53
q0 -30 -20.5 -52t-52.5 -22z" />
    <glyph glyph-name="uni1EE6" unicode="&#x1ee6;" horiz-adv-x="657" 
d="M613 260q0 -59 -22.5 -111.5t-61 -91.5t-91 -61.5t-111.5 -22.5q-60 0 -112 22.5t-91 61.5t-61.5 91.5t-22.5 111.5v1213h166v-1213q0 -51 35 -86t86 -35q49 0 85 35t36 86v1213h165v-1213zM302 1523v8q0 19 4 35.5t10 30.5t13.5 26.5t16.5 25.5q15 23 15 45q0 8 -6 14
t-15 6q-8 0 -19 -10l-11 -11l-1 -10h-51v11q0 16 5.5 31t16.5 26t26 17.5t34 6.5t34.5 -6.5t26.5 -18t16.5 -26t5.5 -30.5t-4 -30.5t-11.5 -28t-15.5 -26t-17 -26.5q-10 -15 -17 -38q-3 -10 -5 -22h-51z" />
    <glyph glyph-name="uni1EE7" unicode="&#x1ee7;" horiz-adv-x="651" 
d="M605 0h-110l-37 55q-17 -22 -51.5 -42.5t-100.5 -20.5q-53 0 -101 19.5t-85 56t-58.5 90t-21.5 121.5v870h166v-870q0 -52 32.5 -86.5t84.5 -34.5q49 0 82.5 34.5t33.5 86.5v870h166v-1149zM282 1216v8q0 19 4 35.5t10 30.5t13.5 26.5t16.5 25.5q15 23 15 45q0 8 -6 14
t-15 6q-8 0 -19 -10l-11 -11l-1 -10h-51v11q0 16 5.5 31t16.5 26t26 17.5t34 6.5t34.5 -6.5t26.5 -18t16.5 -26t5.5 -30.5t-4 -30.5t-11.5 -28t-15.5 -26t-17 -26.5q-10 -15 -17 -38q-3 -10 -5 -22h-51z" />
    <glyph glyph-name="uni1EE8" unicode="&#x1ee8;" horiz-adv-x="657" 
d="M329 1532h-59l85 149h104zM613 1243v-983q0 -59 -22.5 -111.5t-61 -91.5t-91 -61.5t-111.5 -22.5q-60 0 -112 22.5t-91 61.5t-61.5 91.5t-22.5 111.5v1213h166v-1213q0 -51 35 -86t86 -35q49 0 85 35t36 86v1213h94l4 45h147z" />
    <glyph glyph-name="uni1EE9" unicode="&#x1ee9;" horiz-adv-x="651" 
d="M303 1215h-59l85 149h104zM605 908v-908h-110l-37 55q-17 -22 -51.5 -42.5t-100.5 -20.5q-53 0 -101 19.5t-85 56t-58.5 90t-21.5 121.5v870h166v-870q0 -52 32.5 -86.5t84.5 -34.5q49 0 82.5 34.5t33.5 86.5v870h102l5 62h147z" />
    <glyph glyph-name="uni1EEA" unicode="&#x1eea;" horiz-adv-x="657" 
d="M183 1681h104l85 -149h-59zM613 1243v-983q0 -59 -22.5 -111.5t-61 -91.5t-91 -61.5t-111.5 -22.5q-60 0 -112 22.5t-91 61.5t-61.5 91.5t-22.5 111.5v1213h166v-1213q0 -51 35 -86t86 -35q49 0 85 35t36 86v1213h94l4 45h147z" />
    <glyph glyph-name="uni1EEB" unicode="&#x1eeb;" horiz-adv-x="651" 
d="M184 1364h104l85 -149h-59zM605 908v-908h-110l-37 55q-17 -22 -51.5 -42.5t-100.5 -20.5q-53 0 -101 19.5t-85 56t-58.5 90t-21.5 121.5v870h166v-870q0 -52 32.5 -86.5t84.5 -34.5q49 0 82.5 34.5t33.5 86.5v870h102l5 62h147z" />
    <glyph glyph-name="uni1EEC" unicode="&#x1eec;" horiz-adv-x="657" 
d="M302 1523v8q0 19 4 35.5t10 30.5t13.5 26.5t16.5 25.5q15 23 15 45q0 8 -6 14t-15 6q-8 0 -19 -10l-11 -11l-1 -10h-51v11q0 16 5.5 31t16.5 26t26 17.5t34 6.5t34.5 -6.5t26.5 -18t16.5 -26t5.5 -30.5t-4 -30.5t-11.5 -28t-15.5 -26t-17 -26.5q-10 -15 -17 -38
q-3 -10 -5 -22h-51zM613 1243v-983q0 -59 -22.5 -111.5t-61 -91.5t-91 -61.5t-111.5 -22.5q-60 0 -112 22.5t-91 61.5t-61.5 91.5t-22.5 111.5v1213h166v-1213q0 -51 35 -86t86 -35q49 0 85 35t36 86v1213h94l4 45h147z" />
    <glyph glyph-name="uni1EED" unicode="&#x1eed;" horiz-adv-x="651" 
d="M282 1216v8q0 19 4 35.5t10 30.5t13.5 26.5t16.5 25.5q15 23 15 45q0 8 -6 14t-15 6q-8 0 -19 -10l-11 -11l-1 -10h-51v11q0 16 5.5 31t16.5 26t26 17.5t34 6.5t34.5 -6.5t26.5 -18t16.5 -26t5.5 -30.5t-4 -30.5t-11.5 -28t-15.5 -26t-17 -26.5q-10 -15 -17 -38
q-3 -10 -5 -22h-51zM605 908v-908h-110l-37 55q-17 -22 -51.5 -42.5t-100.5 -20.5q-53 0 -101 19.5t-85 56t-58.5 90t-21.5 121.5v870h166v-870q0 -52 32.5 -86.5t84.5 -34.5q49 0 82.5 34.5t33.5 86.5v870h102l5 62h147z" />
    <glyph glyph-name="uni1EEE" unicode="&#x1eee;" horiz-adv-x="657" 
d="M491 1601q-25 -65 -100 -65q-19 0 -33 6t-28 13.5t-27.5 14t-28.5 6.5q-16 0 -32.5 -10.5t-32.5 -36.5l-48 41q21 38 46 54.5t56 16.5q25 0 40.5 -5.5t28.5 -13t25 -13t30 -5.5q40 0 61 46zM613 1243v-983q0 -59 -22.5 -111.5t-61 -91.5t-91 -61.5t-111.5 -22.5
q-60 0 -112 22.5t-91 61.5t-61.5 91.5t-22.5 111.5v1213h166v-1213q0 -51 35 -86t86 -35q49 0 85 35t36 86v1213h94l4 45h147z" />
    <glyph glyph-name="uni1EEF" unicode="&#x1eef;" horiz-adv-x="651" 
d="M481 1278q-25 -65 -100 -65q-19 0 -33 6t-28 13.5t-27.5 14t-28.5 6.5q-16 0 -32.5 -10.5t-32.5 -36.5l-48 41q21 38 46 54.5t56 16.5q25 0 40.5 -5.5t28.5 -13t25 -13t30 -5.5q40 0 61 46zM605 908v-908h-110l-37 55q-17 -22 -51.5 -42.5t-100.5 -20.5q-53 0 -101 19.5
t-85 56t-58.5 90t-21.5 121.5v870h166v-870q0 -52 32.5 -86.5t84.5 -34.5q49 0 82.5 34.5t33.5 86.5v870h102l5 62h147z" />
    <glyph glyph-name="uni1EF0" unicode="&#x1ef0;" horiz-adv-x="657" 
d="M327 -205q-29 0 -51 22t-22 52q0 32 22 53t51 21q32 0 52.5 -21t20.5 -53q0 -30 -20.5 -52t-52.5 -22zM613 1243v-983q0 -59 -22.5 -111.5t-61 -91.5t-91 -61.5t-111.5 -22.5q-60 0 -112 22.5t-91 61.5t-61.5 91.5t-22.5 111.5v1213h166v-1213q0 -51 35 -86t86 -35
q49 0 85 35t36 86v1213h94l4 45h147z" />
    <glyph glyph-name="uni1EF1" unicode="&#x1ef1;" horiz-adv-x="651" 
d="M323 -205q-29 0 -51 22t-22 52q0 32 22 53t51 21q32 0 52.5 -21t20.5 -53q0 -30 -20.5 -52t-52.5 -22zM605 908v-908h-110l-37 55q-17 -22 -51.5 -42.5t-100.5 -20.5q-53 0 -101 19.5t-85 56t-58.5 90t-21.5 121.5v870h166v-870q0 -52 32.5 -86.5t84.5 -34.5
q49 0 82.5 34.5t33.5 86.5v870h102l5 62h147z" />
    <glyph glyph-name="Ygrave" unicode="&#x1ef2;" horiz-adv-x="657" 
d="M641 1473l-235 -777v-696h-166v688l-240 785h195l131 -525l133 525h182zM183 1681h104l85 -149h-59z" />
    <glyph glyph-name="ygrave" unicode="&#x1ef3;" horiz-adv-x="641" 
d="M595 -322h-165v377q-11 -22 -51 -42.5t-93 -20.5q-51 0 -98 19.5t-84 56t-59.5 90t-22.5 121.5v870h166v-870q0 -52 35 -86.5t86 -34.5q49 0 85 34.5t36 86.5v870h165v-1471zM184 1364h104l85 -149h-59z" />
    <glyph glyph-name="uni1EF4" unicode="&#x1ef4;" horiz-adv-x="657" 
d="M641 1473l-235 -777v-696h-166v688l-240 785h195l131 -525l133 525h182zM321 -205q-29 0 -51 22t-22 52q0 32 22 53t51 21q32 0 52.5 -21t20.5 -53q0 -30 -20.5 -52t-52.5 -22z" />
    <glyph glyph-name="uni1EF5" unicode="&#x1ef5;" horiz-adv-x="641" 
d="M595 -322h-165v377q-11 -22 -51 -42.5t-93 -20.5q-51 0 -98 19.5t-84 56t-59.5 90t-22.5 121.5v870h166v-870q0 -52 35 -86.5t86 -34.5q49 0 85 34.5t36 86.5v870h165v-1471zM309 -205q-29 0 -51 22t-22 52q0 32 22 53t51 21q32 0 52.5 -21t20.5 -53q0 -30 -20.5 -52
t-52.5 -22z" />
    <glyph glyph-name="uni1EF6" unicode="&#x1ef6;" horiz-adv-x="657" 
d="M641 1473l-235 -777v-696h-166v688l-240 785h195l131 -525l133 525h182zM302 1523v8q0 19 4 35.5t10 30.5t13.5 26.5t16.5 25.5q15 23 15 45q0 8 -6 14t-15 6q-8 0 -19 -10l-11 -11l-1 -10h-51v11q0 16 5.5 31t16.5 26t26 17.5t34 6.5t34.5 -6.5t26.5 -18t16.5 -26
t5.5 -30.5t-4 -30.5t-11.5 -28t-15.5 -26t-17 -26.5q-10 -15 -17 -38q-3 -10 -5 -22h-51z" />
    <glyph glyph-name="uni1EF7" unicode="&#x1ef7;" horiz-adv-x="641" 
d="M595 -322h-165v377q-11 -22 -51 -42.5t-93 -20.5q-51 0 -98 19.5t-84 56t-59.5 90t-22.5 121.5v870h166v-870q0 -52 35 -86.5t86 -34.5q49 0 85 34.5t36 86.5v870h165v-1471zM282 1216v8q0 19 4 35.5t10 30.5t13.5 26.5t16.5 25.5q15 23 15 45q0 8 -6 14t-15 6
q-8 0 -19 -10l-11 -11l-1 -10h-51v11q0 16 5.5 31t16.5 26t26 17.5t34 6.5t34.5 -6.5t26.5 -18t16.5 -26t5.5 -30.5t-4 -30.5t-11.5 -28t-15.5 -26t-17 -26.5q-10 -15 -17 -38q-3 -10 -5 -22h-51z" />
    <glyph glyph-name="uni1EF8" unicode="&#x1ef8;" horiz-adv-x="657" 
d="M641 1473l-235 -777v-696h-166v688l-240 785h195l131 -525l133 525h182zM491 1601q-25 -65 -100 -65q-19 0 -33 6t-28 13.5t-27.5 14t-28.5 6.5q-16 0 -32.5 -10.5t-32.5 -36.5l-48 41q21 38 46 54.5t56 16.5q25 0 40.5 -5.5t28.5 -13t25 -13t30 -5.5q40 0 61 46z" />
    <glyph glyph-name="uni1EF9" unicode="&#x1ef9;" horiz-adv-x="641" 
d="M595 -322h-165v377q-11 -22 -51 -42.5t-93 -20.5q-51 0 -98 19.5t-84 56t-59.5 90t-22.5 121.5v870h166v-870q0 -52 35 -86.5t86 -34.5q49 0 85 34.5t36 86.5v870h165v-1471zM481 1278q-25 -65 -100 -65q-19 0 -33 6t-28 13.5t-27.5 14t-28.5 6.5q-16 0 -32.5 -10.5
t-32.5 -36.5l-48 41q21 38 46 54.5t56 16.5q25 0 40.5 -5.5t28.5 -13t25 -13t30 -5.5q40 0 61 46z" />
    <glyph glyph-name="quoteleft" unicode="&#x2018;" horiz-adv-x="235" 
d="M24 1421q0 -92 40 -150.5t110 -58.5v54q-35 0 -52.5 22.5t-17.5 44.5h2q37 -2 60.5 31t23.5 72q0 41 -24.5 72.5t-61.5 31.5q-80 0 -80 -119z" />
    <glyph glyph-name="quoteright" unicode="&#x2019;" horiz-adv-x="241" 
d="M194 1421q0 -92 -40 -150.5t-110 -58.5v54q35 0 56 24q14 21 14 43h-2q-37 -2 -60.5 31t-23.5 72q0 41 24.5 72.5t61.5 31.5q80 0 80 -119z" />
    <glyph glyph-name="quotedblleft" unicode="&#x201c;" horiz-adv-x="471" 
d="M43 1425q0 -90 40 -148t107 -58v51q-32 0 -50.5 22.5t-18.5 44.5h4q35 0 59.5 33t24.5 72q0 41 -25.5 72.5t-62.5 31.5q-78 0 -78 -121zM248 1425q0 -90 40 -148t107 -58v51q-33 0 -51 22.5t-18 44.5h4q35 0 59.5 33t24.5 72q0 41 -26 72.5t-62 31.5q-78 0 -78 -121z" />
    <glyph glyph-name="quotedblright" unicode="&#x201d;" horiz-adv-x="464" 
d="M204 1419q0 -90 -40 -148.5t-108 -58.5v52q33 0 54 26q16 19 16 41h-4q-35 0 -59.5 33t-24.5 72q0 41 25.5 72.5t62.5 31.5q78 0 78 -121zM409 1419q0 -90 -40 -148.5t-108 -58.5v52q33 0 53 26q17 19 17 41h-4q-35 0 -59.5 33t-24.5 72q0 41 25.5 72.5t62.5 31.5
q78 0 78 -121z" />
    <glyph glyph-name="ellipsis" unicode="&#x2026;" horiz-adv-x="624" 
d="M194 104q0 -41 -21.5 -71.5t-58.5 -30.5t-61.5 32t-24.5 70q0 41 24.5 73t61.5 32t58.5 -31t21.5 -74zM397 104q0 -41 -20.5 -71.5t-57.5 -30.5t-62.5 32t-25.5 70q0 41 25.5 73t62.5 32t57.5 -31t20.5 -74zM599 104q0 -41 -20.5 -71.5t-56.5 -30.5q-37 0 -62.5 32
t-25.5 70q0 41 25.5 73t62.5 32q36 0 56.5 -31t20.5 -74z" />
    <glyph glyph-name="Eth" horiz-adv-x="1516" 
 />
    <glyph glyph-name="ugrave" horiz-adv-x="582" 
 />
    <glyph glyph-name="uacute" horiz-adv-x="580" 
 />
    <glyph glyph-name="yacute" horiz-adv-x="629" 
 />
  </font>
</defs>
</svg>
